<?xml version="1.0" encoding="UTF-8"?>
<svg id="Lager_1" xmlns="http://www.w3.org/2000/svg" xmlns:xlink="http://www.w3.org/1999/xlink" version="1.1" viewBox="0 0 441.77 198.41">
  <!-- Generator: Adobe Illustrator 30.0.0, SVG Export Plug-In . SVG Version: 2.1.1 Build 123)  -->
  <defs>
    <style>
      .st0 {
        fill: #fff;
      }

      .st1 {
        fill: url(#Ny_övertoningsruta_2);
      }
    </style>
    <radialGradient id="Ny_övertoningsruta_2" data-name="Ny övertoningsruta 2" cx="356.39" cy="177.78" fx="356.39" fy="177.78" r="36.95" gradientUnits="userSpaceOnUse">
      <stop offset=".22" stop-color="#e73439"/>
      <stop offset=".95" stop-color="#ae1917"/>
    </radialGradient>
  </defs>
  <g>
    <path class="st0" d="M91.97,15.72l4.4,78.93-17.99,1-12.68-35.29,2,35.88-17.16.96-4.4-78.93,17.16-.96,13.49,34.9-1.98-35.54,17.16-.96Z"/>
    <path class="st0" d="M148.69,58.92c.44,7.93.57,13.56.38,16.88-.19,3.32-1.19,6.4-3.01,9.24-1.81,2.84-4.35,5.08-7.62,6.73-3.27,1.65-7.13,2.6-11.58,2.85s-8.06-.24-11.5-1.44-6.26-3.11-8.46-5.76c-2.2-2.65-3.59-5.59-4.16-8.82-.57-3.23-1.08-8.91-1.54-17.03l-.75-13.5c-.44-7.93-.57-13.56-.38-16.88.19-3.32,1.19-6.4,3.01-9.24,1.81-2.84,4.35-5.08,7.62-6.73,3.27-1.65,7.13-2.6,11.58-2.85s8.06.24,11.5,1.44c3.44,1.19,6.26,3.12,8.46,5.76,2.2,2.65,3.59,5.59,4.16,8.82.57,3.23,1.08,8.91,1.54,17.03l.75,13.5ZM126.72,34.13c-.2-3.67-.54-6.01-1-7.01-.46-1-1.33-1.47-2.6-1.4-1.07.06-1.87.52-2.39,1.38-.52.86-.67,3.32-.44,7.38l2.06,36.86c.26,4.58.6,7.4,1.03,8.45.43,1.05,1.33,1.54,2.7,1.46s2.26-.75,2.58-2c.32-1.26.35-4.21.09-8.86l-2.02-36.27Z"/>
    <path class="st0" d="M152.77,12.33l14.53-.81c9.69-.54,16.26-.53,19.73.02,3.47.56,6.37,2.31,8.7,5.26,2.33,2.95,3.69,7.79,4.06,14.52.34,6.14-.19,10.31-1.6,12.51-1.41,2.2-4.35,3.63-8.81,4.31,4.12.78,6.92,1.98,8.42,3.59,1.49,1.61,2.45,3.12,2.87,4.51s.81,5.28,1.16,11.65l1.16,20.82-19.06,1.06-1.46-26.23c-.24-4.22-.72-6.82-1.44-7.79-.72-.97-2.5-1.38-5.33-1.22l1.99,35.59-20.52,1.15-4.4-78.93ZM174.05,24.69l.98,17.55c2.31-.13,3.91-.54,4.8-1.22s1.24-2.77,1.05-6.24l-.24-4.34c-.14-2.5-.68-4.12-1.62-4.85-.94-.73-2.59-1.03-4.96-.9Z"/>
    <path class="st0" d="M206.54,9.33l14.53-.81c9.69-.54,16.26-.53,19.73.02,3.47.56,6.37,2.31,8.7,5.26,2.33,2.95,3.69,7.79,4.06,14.52.34,6.14-.19,10.31-1.6,12.51-1.41,2.2-4.35,3.63-8.81,4.31,4.12.78,6.92,1.98,8.42,3.59,1.49,1.61,2.45,3.12,2.87,4.51s.81,5.28,1.16,11.65l1.16,20.82-19.06,1.06-1.46-26.23c-.24-4.22-.72-6.82-1.44-7.79-.72-.97-2.5-1.38-5.33-1.22l1.99,35.59-20.52,1.15-4.4-78.93ZM227.82,21.69l.98,17.55c2.31-.13,3.91-.54,4.8-1.22s1.24-2.77,1.05-6.24l-.24-4.34c-.14-2.5-.68-4.12-1.62-4.85-.94-.73-2.59-1.03-4.96-.9Z"/>
    <path class="st0" d="M53.99,103.98l-9.79,36.29,15.31,42.57-21.21,1.18-10.2-33.37,1.89,33.83-20.52,1.15-4.4-78.93,20.52-1.15,1.71,30.67,7.43-31.18,19.26-1.07Z"/>
    <path class="st0" d="M97.12,101.57l16.14,78.28-20.98,1.17-1.89-14.13-7.34.41-.44,14.26-21.22,1.18,6.07-79.51,29.67-1.65ZM89.07,152.93c-1.54-8.88-3.2-19.87-4.98-32.98-1.25,15.23-1.94,26.35-2.09,33.37l7.07-.39Z"/>
    <path class="st0" d="M150.17,98.61l.88,15.8-12.19.68,3.52,63.13-20.52,1.15-3.52-63.13-12.14.68-.88-15.8,44.85-2.5Z"/>
    <path class="st0" d="M187.33,96.54l16.14,78.28-20.98,1.17-1.89-14.13-7.34.41-.44,14.26-21.22,1.18,6.07-79.51,29.67-1.65ZM179.29,147.9c-1.54-8.88-3.2-19.87-4.98-32.98-1.25,15.23-1.94,26.35-2.09,33.37l7.07-.39Z"/>
    <path class="st0" d="M224.08,94.49l3.52,63.13,12.48-.7.88,15.8-33.01,1.84-4.4-78.93,20.52-1.15Z"/>
    <path class="st0" d="M290.5,137.15c.44,7.93.57,13.56.38,16.88-.19,3.32-1.19,6.4-3.01,9.24-1.82,2.84-4.35,5.08-7.62,6.73-3.27,1.65-7.13,2.6-11.58,2.85s-8.06-.24-11.5-1.44-6.26-3.11-8.46-5.76c-2.2-2.65-3.59-5.59-4.16-8.82-.57-3.23-1.08-8.91-1.54-17.03l-.75-13.5c-.44-7.93-.57-13.56-.38-16.88.19-3.32,1.19-6.4,3.01-9.24,1.81-2.84,4.35-5.08,7.62-6.73,3.27-1.65,7.13-2.6,11.58-2.85s8.06.24,11.5,1.44c3.44,1.19,6.26,3.12,8.46,5.76,2.2,2.65,3.59,5.59,4.16,8.82.57,3.23,1.08,8.91,1.54,17.03l.75,13.5ZM268.53,112.35c-.2-3.67-.54-6.01-1-7.01-.46-1-1.33-1.47-2.6-1.4-1.07.06-1.87.52-2.39,1.38-.52.86-.67,3.32-.44,7.38l2.06,36.86c.26,4.58.6,7.4,1.03,8.45.43,1.05,1.33,1.54,2.7,1.46s2.26-.75,2.58-2c.32-1.26.35-4.21.09-8.86l-2.02-36.27Z"/>
    <path class="st0" d="M342.29,117.04l-20.52,1.15-.4-7.17c-.25-4.52-.6-7.33-1.06-8.45-.45-1.12-1.41-1.63-2.87-1.55-1.27.07-2.1.61-2.5,1.61-.4,1-.49,3.52-.26,7.55l2.11,37.88c.2,3.54.55,5.86,1.07,6.96.52,1.1,1.46,1.61,2.82,1.53,1.49-.08,2.48-.77,2.94-2.07s.6-3.78.39-7.46l-.52-9.36-4.14.23-.67-11.99,24.03-1.34,2.36,42.37-12.9.72-2.21-5.55c-1.26,2.52-2.93,4.44-4.99,5.78-2.06,1.34-4.54,2.09-7.44,2.25-3.45.19-6.72-.46-9.83-1.97-3.1-1.51-5.5-3.45-7.2-5.83-1.7-2.38-2.82-4.92-3.36-7.61-.54-2.69-.96-6.75-1.27-12.18l-1.31-23.45c-.42-7.54-.32-13.04.3-16.5.62-3.46,2.78-6.72,6.47-9.78,3.69-3.06,8.59-4.76,14.7-5.1s11.07.62,15.17,2.87c4.1,2.25,6.85,5.04,8.24,8.37,1.39,3.33,2.27,8.23,2.63,14.7l.19,3.41Z"/>
    <path class="st0" d="M348.62,87.54l34.22-1.91.88,15.8-13.7.76.83,14.97,12.82-.72.84,15.02-12.82.72.97,17.36,15.06-.84.88,15.8-35.59,1.99-4.4-78.93Z"/>
    <path class="st0" d="M436.93,82.62l4.4,78.93-17.99,1-12.68-35.29,2,35.88-17.16.96-4.4-78.93,17.16-.96,13.49,34.9-1.98-35.54,17.16-.96Z"/>
    <path class="st0" d="M285.66,43.45l.9,16.09-14.87.83-.9-16.09,14.87-.83Z"/>
  </g>
  <path class="st1" d="M415.25,176.03c0-.16-.26-.32-.4-.47-.14.15-.33.28-.41.46-.15.31-.23.65-.36.97-.7,1.78-1.47,3.52-2.84,4.9-.28.29-.88.52-1.23.42-.3-.08-.58-.66-.64-1.05-.11-.85-.14-1.73-.09-2.58.13-2,.32-3.99.49-5.99.08-.96-.35-1.6-1.15-2.07-1.06-.61-2.24-.78-3.43-.8-.88,0-1.14.37-1.08,1.27.03.44.05.89,0,1.33-.18,1.89-.24,3.81-.63,5.67-.26,1.25-.93,2.43-1.54,3.57-.38.7-1.09.59-1.39-.17-.19-.47-.31-1.01-.29-1.5.1-1.97.23-3.95.42-5.92.11-1.14-.45-1.83-1.35-2.33-.36-.2-.76-.37-1.17-.47-1.25-.3-2.5-.58-3.77-.82-.64-.12-.91-.37-.85-1.08.08-.86.07-1.73,0-2.59-.18-2.14-2.02-3.04-3.87-1.93-1.52.92-2.07,2.49-1.22,4.08.53.98,1.37,1.8,2.05,2.7.15.2.34.47.32.68-.3,2.68-.85,5.31-1.84,7.83-.4,1.03-1.13,1.66-2.13,2.02-1.1.39-2.24.42-3.36.06-1.1-.36-1.79-1.13-2.12-2.31.41.08.72.16,1.04.19,1.37.14,2.73.21,3.92-.68,1.76-1.31,2.32-3.15,2.22-5.22-.13-2.64-2.5-4.38-4.45-4.36-.81.01-1.64-.08-2.43-.26-.96-.23-1.8-.1-2.61.44-2.09,1.4-3.12,3.44-3.52,5.86-.3,1.77-.05,3.48.55,5.14-1.64,1.23-4.75.46-5.73-1.41.33-.2.67-.41,1.01-.61,1.14-.71,2.04-1.65,2.64-2.85.9-1.78.47-4.22-.9-5.32-1.59-1.26-4.29-1.32-5.8,0-.77.67-1.47,1.48-2.04,2.33-.67,1.02-1.16,2.15-1.76,3.29-.01-.21-.02-.37-.03-.53-.04-3.72.27-7.41.83-11.08.12-.79-.13-1.29-.74-1.69-1.17-.78-2.49-1.07-3.87-1.09-.55-.01-.8.28-.82.83-.05.99-.14,1.97-.19,2.96-.19,4.05-.37,8.1-.56,12.14-.01.24,0,.53-.12.71-.51.78-1,1.6-1.64,2.28-.99,1.07-2.2.92-2.96-.32-.86-1.4-1.06-2.98-1.16-4.56,1-.13,1.95-.19,2.86-.39.83-.18,1.15-.91.77-1.67-.42-.84-1.09-1.41-2.09-1.43-.56-.02-1.12,0-1.73,0,0-.32,0-.54,0-.76.13-3.26.19-6.53.42-9.78.2-2.91-1.92-4.43-4.1-4.71-.44-.06-.93.06-1.37.18-.41.11-1.1.32-1.5.49-1.04.44-1.84.79-2.79,1.37-2.01,1.22-3.13,3.19-4.07,5.26-1.26,2.75-2.03,5.66-2.67,8.61-.14.64-.39.98-1.08,1.15-1.39.33-2.77.76-4.11,1.24-.96.35-1.12,1.01-.47,1.8.98,1.19,2.19,1.92,3.83,1.61.15-.03.31,0,.65,0-.48,1.23-.86,2.38-1.37,3.47-.89,1.93-2.46,2.38-4.27,1.22-.53-.34-1-.81-1.39-1.3-.83-1.04-1.13-2.3-1.26-3.59-.2-2.1-.06-4.16,1.17-5.98.85-1.26,2.09-1.77,3.53-1.45.34.07.66.21,1,.29.71.17,1.12-.23,1.42-.79.31-.56.1-1.03-.37-1.35-.47-.31-.96-.65-1.5-.79-3.23-.88-6.06.03-8.44,2.2-2.91,2.66-3.67,6.12-2.92,9.84.74,3.69,3.05,6.18,6.77,6.97,3.51.74,6.62-.18,8.99-3.06,1.52-1.85,2.39-4.02,3.24-6.21.1-.26.33-.62.56-.67,1.86-.39,3.73-.71,5.53-1.04.36,1.48.59,2.93,1.07,4.29.78,2.22,2.16,3.95,4.68,4.22,2.83.3,5.24-.57,6.9-3.03.19-.27.37-.55.52-.76.56.85,1.01,1.71,1.64,2.42.36.41.97.7,1.52.82,1.23.27,2.01-.46,2.57-1.46.28-.5.53-1.02.83-1.61,1.3,1.44,2.69,2.58,4.38,3.31,1.95.84,3.83.74,5.57-.5.73-.53,1.35-1.21,2.02-1.83,1.58,1.75,3.71,2.4,6.06,2.55,1.55.1,3.04-.34,4.54-.5,1.98-.22,3.11-1.24,3.76-2.88.6-1.5,1.03-3.08,1.41-4.66.26-1.09.32-2.23.47-3.36,1.78.49,1.93.7,1.47,2.38-.4,1.47-.63,2.94-.43,4.47.52,3.91,3.69,5.1,6.65,4.19,1.35-.41,2.33-1.37,3.23-2.5,1.73,3.26,5.73,3.18,7.82,1.81,1.65-1.09,2.56-2.77,2.97-4.64.24-1.13.13-2.33.13-3.51ZM345.38,172.83c-1.37.12-2.83.25-4.42.4.53-2.01,1.01-3.91,1.56-5.8.55-1.9,1.18-3.78,2.42-5.37.36-.47.87-.83,1.33-1.25-.3,4.07-.58,8.01-.88,12.03ZM367.55,177.29c-.62.56-1.28,1.07-1.93,1.6-.08-.06-.17-.13-.25-.19.78-1.47,1.53-2.96,2.36-4.4.15-.26.61-.35.93-.52.1.35.32.72.28,1.06-.11,1-.67,1.79-1.4,2.46ZM383.52,172.46c.19.02.35.46.61.83-.5,1.37-.96,2.71-1.5,4.01-.1.24-.63.51-.85.43-.24-.08-.49-.56-.47-.85l2.21-4.43ZM348.24,155.45c2.55-.91,4.21-2.83,4.55-5.43.14-1.02-.1-3.02-1.5-4.02-1.23-.88-2.64-1.26-4.12-1.24-.54,0-1.2.09-1.69.33-.64.31-1.03.37-1.7.87-.2.15-.41.37-.62.63-.25.3-.52.66-.79,1.02-.62.81-.79,1.55-.95,2.92.1,3.57,3.52,6.09,6.83,4.91ZM347.19,147.42c.45-.42,1.04-.63,1.64-.33.66.33.66.98.66,1.78-.09,1.18-.46,2.44-1.33,3.52-.17.21-.37.41-.59.56-1,.69-2.14.23-2.23-.96-.14-1.8.51-3.35,1.84-4.57ZM404.57,167.56c-.79-.9-1.16-1.95-.97-3.15.04-.29.14-.58.28-.83.54-1.01,1.95-1.51,3.33-1.19,1.38.32,2.17,1.22,2.2,2.5,0,.15,0,.3,0,.44h-.01c0,.22.03.45,0,.67-.15,1-.2,2.07-1.35,2.52-1.04.4-2.67-.06-3.47-.96Z"/>
</svg>