<?xml version="1.0" encoding="UTF-8"?>
<svg id="Lager_1" xmlns="http://www.w3.org/2000/svg" xmlns:xlink="http://www.w3.org/1999/xlink" version="1.1" viewBox="0 0 441.77 198.41">
  <!-- Generator: Adobe Illustrator 30.0.0, SVG Export Plug-In . SVG Version: 2.1.1 Build 123)  -->
  <defs>
    <style>
      .st0 {
        fill: none;
      }

      .st1 {
        fill: #c02220;
      }

      .st2 {
        fill: #cc2727;
      }

      .st3 {
        fill: #de2f32;
      }

      .st4 {
        fill: #cf2829;
      }

      .st5 {
        fill: #d0292a;
      }

      .st6 {
        fill: #b61d1b;
      }

      .st7 {
        fill: #d02929;
      }

      .st8 {
        fill: #e43237;
      }

      .st9 {
        fill: #c12221;
      }

      .st10 {
        fill: #ca2626;
      }

      .st11 {
        fill: #e23135;
      }

      .st12 {
        fill: #d82c2e;
      }

      .st13 {
        fill: #e53337;
      }

      .st14 {
        fill: #b31c1a;
      }

      .st15 {
        fill: #1d1d1b;
      }

      .st16 {
        fill: #ce2828;
      }

      .st17 {
        fill: #d42b2c;
      }

      .st18 {
        fill: #b51d1b;
      }

      .st19 {
        fill: #d92d2f;
      }

      .st20 {
        fill: #ae1917;
      }

      .st21 {
        fill: #d22a2b;
      }

      .st22 {
        fill: #d62c2d;
      }

      .st23 {
        fill: #bf2120;
      }

      .st24 {
        fill: #c62423;
      }

      .st25 {
        fill: #e63338;
      }

      .st26 {
        fill: #be211f;
      }

      .st27 {
        fill: #e33236;
      }

      .st28 {
        fill: #bf211f;
      }

      .st29 {
        fill: #b41c1a;
      }

      .st30 {
        fill: #c72524;
      }

      .st31 {
        fill: #bd201f;
      }

      .st32 {
        fill: #b81e1c;
      }

      .st33 {
        fill: #cb2726;
      }

      .st34 {
        fill: #b21b19;
      }

      .st35 {
        fill: #c52423;
      }

      .st36 {
        fill: #cd2727;
      }

      .st37 {
        fill: #b91f1d;
      }

      .st38 {
        fill: #df3033;
      }

      .st39 {
        fill: #b71d1c;
      }

      .st40 {
        fill: #d72c2e;
      }

      .st41 {
        fill: #ba1f1d;
      }

      .st42 {
        fill: #dd2f31;
      }

      .st43 {
        fill: #c32322;
      }

      .st44 {
        fill: #c22321;
      }

      .st45 {
        fill: #e73439;
      }

      .st46 {
        fill: #b01a18;
      }

      .st47 {
        fill: #d52b2d;
      }

      .st48 {
        fill: #dc2e31;
      }

      .st49 {
        fill: #c92625;
      }

      .st50 {
        fill: #c42322;
      }

      .st51 {
        fill: #c62524;
      }

      .st52 {
        fill: #e03034;
      }

      .st53 {
        fill: #bc201e;
      }

      .st54 {
        fill: #b11a19;
      }

      .st55 {
        fill: #d12a2a;
      }

      .st56 {
        fill: #da2d2f;
      }

      .st57 {
        clip-path: url(#clippath);
      }

      .st58 {
        fill: #bb1f1e;
      }

      .st59 {
        fill: #af1a18;
      }

      .st60 {
        fill: #db2e30;
      }

      .st61 {
        fill: #e13135;
      }

      .st62 {
        fill: #d32a2b;
      }

      .st63 {
        fill: #c82525;
      }
    </style>
    <clipPath id="clippath">
      <path class="st0" d="M415.25,176.03c0-.16-.26-.32-.4-.47-.14.15-.33.28-.41.46-.15.31-.23.65-.36.97-.7,1.78-1.47,3.52-2.84,4.9-.28.29-.88.52-1.23.42-.3-.08-.58-.66-.64-1.05-.11-.85-.14-1.73-.09-2.58.13-2,.32-3.99.49-5.99.08-.96-.35-1.6-1.15-2.07-1.06-.61-2.24-.78-3.43-.8-.88,0-1.14.37-1.08,1.27.03.44.05.89,0,1.33-.18,1.89-.24,3.81-.63,5.67-.26,1.25-.93,2.43-1.54,3.57-.38.7-1.09.59-1.39-.17-.19-.47-.31-1.01-.29-1.5.1-1.97.23-3.95.42-5.92.11-1.14-.45-1.83-1.35-2.33-.36-.2-.76-.37-1.17-.47-1.25-.3-2.5-.58-3.77-.82-.64-.12-.91-.37-.85-1.08.08-.86.07-1.73,0-2.59-.18-2.14-2.02-3.04-3.87-1.93-1.52.92-2.07,2.49-1.22,4.08.53.98,1.37,1.8,2.05,2.7.15.2.34.47.32.68-.3,2.68-.85,5.31-1.84,7.83-.4,1.03-1.13,1.66-2.13,2.02-1.1.39-2.24.42-3.36.06-1.1-.36-1.79-1.13-2.12-2.31.41.08.72.16,1.04.19,1.37.14,2.73.21,3.92-.68,1.76-1.31,2.32-3.15,2.22-5.22-.13-2.64-2.5-4.38-4.45-4.36-.81.01-1.64-.08-2.43-.26-.96-.23-1.8-.1-2.61.44-2.09,1.4-3.12,3.44-3.52,5.86-.3,1.77-.05,3.48.55,5.14-1.64,1.23-4.75.46-5.73-1.41.33-.2.67-.41,1.01-.61,1.14-.71,2.04-1.65,2.64-2.85.9-1.78.47-4.22-.9-5.32-1.59-1.26-4.29-1.32-5.8,0-.77.67-1.47,1.48-2.04,2.33-.67,1.02-1.16,2.15-1.76,3.29-.01-.21-.02-.37-.03-.53-.04-3.72.27-7.41.83-11.08.12-.79-.13-1.29-.74-1.69-1.17-.78-2.49-1.07-3.87-1.09-.55-.01-.8.28-.82.83-.05.99-.14,1.97-.19,2.96-.19,4.05-.37,8.1-.56,12.14-.01.24,0,.53-.12.71-.51.78-1,1.6-1.64,2.28-.99,1.07-2.2.92-2.96-.32-.86-1.4-1.06-2.98-1.16-4.56,1-.13,1.95-.19,2.86-.39.83-.18,1.15-.91.77-1.67-.42-.84-1.09-1.41-2.09-1.43-.56-.02-1.12,0-1.73,0,0-.32,0-.54,0-.76.13-3.26.19-6.53.42-9.78.2-2.91-1.92-4.43-4.1-4.71-.44-.06-.93.06-1.37.18-.41.11-1.1.32-1.5.49-1.04.44-1.84.79-2.79,1.37-2.01,1.22-3.13,3.19-4.07,5.26-1.26,2.75-2.03,5.66-2.67,8.61-.14.64-.39.98-1.08,1.15-1.39.33-2.77.76-4.11,1.24-.96.35-1.12,1.01-.47,1.8.98,1.19,2.19,1.92,3.83,1.61.15-.03.31,0,.65,0-.48,1.23-.86,2.38-1.37,3.47-.89,1.93-2.46,2.38-4.27,1.22-.53-.34-1-.81-1.39-1.3-.83-1.04-1.13-2.3-1.26-3.59-.2-2.1-.06-4.16,1.17-5.98.85-1.26,2.09-1.77,3.53-1.45.34.07.66.21,1,.29.71.17,1.12-.23,1.42-.79.31-.56.1-1.03-.37-1.35-.47-.31-.96-.65-1.5-.79-3.23-.88-6.06.03-8.44,2.2-2.91,2.66-3.67,6.12-2.92,9.84.74,3.69,3.05,6.18,6.77,6.97,3.51.74,6.62-.18,8.99-3.06,1.52-1.85,2.39-4.02,3.24-6.21.1-.26.33-.62.56-.67,1.86-.39,3.73-.71,5.53-1.04.36,1.48.59,2.93,1.07,4.29.78,2.22,2.16,3.95,4.68,4.22,2.83.3,5.24-.57,6.9-3.03.19-.27.37-.55.52-.76.56.85,1.01,1.71,1.64,2.42.36.41.97.7,1.52.82,1.23.27,2.01-.46,2.57-1.46.28-.5.53-1.02.83-1.61,1.3,1.44,2.69,2.58,4.38,3.31,1.95.84,3.83.74,5.57-.5.73-.53,1.35-1.21,2.02-1.83,1.58,1.75,3.71,2.4,6.06,2.55,1.55.1,3.04-.34,4.54-.5,1.98-.22,3.11-1.24,3.76-2.88.6-1.5,1.03-3.08,1.41-4.66.26-1.09.32-2.23.47-3.36,1.78.49,1.93.7,1.47,2.38-.4,1.47-.63,2.94-.43,4.47.52,3.91,3.69,5.1,6.65,4.19,1.35-.41,2.33-1.37,3.23-2.5,1.73,3.26,5.73,3.18,7.82,1.81,1.65-1.09,2.56-2.77,2.97-4.64.24-1.13.13-2.33.13-3.51ZM345.38,172.83c-1.37.12-2.83.25-4.42.4.53-2.01,1.01-3.91,1.56-5.8.55-1.9,1.18-3.78,2.42-5.37.36-.47.87-.83,1.33-1.25-.3,4.07-.58,8.01-.88,12.03ZM367.55,177.29c-.62.56-1.28,1.07-1.93,1.6-.08-.06-.17-.13-.25-.19.78-1.47,1.53-2.96,2.36-4.4.15-.26.61-.35.93-.52.1.35.32.72.28,1.06-.11,1-.67,1.79-1.4,2.46ZM383.52,172.46c.19.02.35.46.61.83-.5,1.37-.96,2.71-1.5,4.01-.1.24-.63.51-.85.43-.24-.08-.49-.56-.47-.85l2.21-4.43ZM348.24,155.45c2.55-.91,4.21-2.83,4.55-5.43.14-1.02-.1-3.02-1.5-4.02-1.23-.88-2.64-1.26-4.12-1.24-.54,0-1.2.09-1.69.33-.64.31-1.03.37-1.7.87-.2.15-.41.37-.62.63-.25.3-.52.66-.79,1.02-.62.81-.79,1.55-.95,2.92.1,3.57,3.52,6.09,6.83,4.91ZM347.19,147.42c.45-.42,1.04-.63,1.64-.33.66.33.66.98.66,1.78-.09,1.18-.46,2.44-1.33,3.52-.17.21-.37.41-.59.56-1,.69-2.14.23-2.23-.96-.14-1.8.51-3.35,1.84-4.57ZM404.57,167.56c-.79-.9-1.16-1.95-.97-3.15.04-.29.14-.58.28-.83.54-1.01,1.95-1.51,3.33-1.19,1.38.32,2.17,1.22,2.2,2.5,0,.15,0,.3,0,.44h-.01c0,.22.03.45,0,.67-.15,1-.2,2.07-1.35,2.52-1.04.4-2.67-.06-3.47-.96Z"/>
    </clipPath>
  </defs>
  <g>
    <path class="st15" d="M91.97,15.72l4.4,78.93-17.99,1-12.68-35.29,2,35.88-17.16.96-4.4-78.93,17.16-.96,13.49,34.9-1.98-35.54,17.16-.96Z"/>
    <path class="st15" d="M148.69,58.92c.44,7.93.57,13.56.38,16.88-.19,3.32-1.19,6.4-3.01,9.24-1.81,2.84-4.35,5.08-7.62,6.73-3.27,1.65-7.13,2.6-11.58,2.85s-8.06-.24-11.5-1.44-6.26-3.11-8.46-5.76c-2.2-2.65-3.59-5.59-4.16-8.82-.57-3.23-1.08-8.91-1.54-17.03l-.75-13.5c-.44-7.93-.57-13.56-.38-16.88.19-3.32,1.19-6.4,3.01-9.24,1.81-2.84,4.35-5.08,7.62-6.73,3.27-1.65,7.13-2.6,11.58-2.85s8.06.24,11.5,1.44c3.44,1.19,6.26,3.12,8.46,5.76,2.2,2.65,3.59,5.59,4.16,8.82.57,3.23,1.08,8.91,1.54,17.03l.75,13.5ZM126.72,34.13c-.2-3.67-.54-6.01-1-7.01-.46-1-1.33-1.47-2.6-1.4-1.07.06-1.87.52-2.39,1.38-.52.86-.67,3.32-.44,7.38l2.06,36.86c.26,4.58.6,7.4,1.03,8.45.43,1.05,1.33,1.54,2.7,1.46s2.26-.75,2.58-2c.32-1.26.35-4.21.09-8.86l-2.02-36.27Z"/>
    <path class="st15" d="M152.77,12.33l14.53-.81c9.69-.54,16.26-.53,19.73.02,3.47.56,6.37,2.31,8.7,5.26,2.33,2.95,3.69,7.79,4.06,14.52.34,6.14-.19,10.31-1.6,12.51-1.41,2.2-4.35,3.63-8.81,4.31,4.12.78,6.92,1.98,8.42,3.59,1.49,1.61,2.45,3.12,2.87,4.51s.81,5.28,1.16,11.65l1.16,20.82-19.06,1.06-1.46-26.23c-.24-4.22-.72-6.82-1.44-7.79-.72-.97-2.5-1.38-5.33-1.22l1.99,35.59-20.52,1.15-4.4-78.93ZM174.05,24.69l.98,17.55c2.31-.13,3.91-.54,4.8-1.22s1.24-2.77,1.05-6.24l-.24-4.34c-.14-2.5-.68-4.12-1.62-4.85-.94-.73-2.59-1.03-4.96-.9Z"/>
    <path class="st15" d="M206.54,9.33l14.53-.81c9.69-.54,16.26-.53,19.73.02,3.47.56,6.37,2.31,8.7,5.26,2.33,2.95,3.69,7.79,4.06,14.52.34,6.14-.19,10.31-1.6,12.51-1.41,2.2-4.35,3.63-8.81,4.31,4.12.78,6.92,1.98,8.42,3.59,1.49,1.61,2.45,3.12,2.87,4.51s.81,5.28,1.16,11.65l1.16,20.82-19.06,1.06-1.46-26.23c-.24-4.22-.72-6.82-1.44-7.79-.72-.97-2.5-1.38-5.33-1.22l1.99,35.59-20.52,1.15-4.4-78.93ZM227.82,21.69l.98,17.55c2.31-.13,3.91-.54,4.8-1.22s1.24-2.77,1.05-6.24l-.24-4.34c-.14-2.5-.68-4.12-1.62-4.85-.94-.73-2.59-1.03-4.96-.9Z"/>
    <path class="st15" d="M53.99,103.98l-9.79,36.29,15.31,42.57-21.21,1.18-10.2-33.37,1.89,33.83-20.52,1.15-4.4-78.93,20.52-1.15,1.71,30.67,7.43-31.18,19.26-1.07Z"/>
    <path class="st15" d="M97.12,101.57l16.14,78.28-20.98,1.17-1.89-14.13-7.34.41-.44,14.26-21.22,1.18,6.07-79.51,29.67-1.65ZM89.07,152.93c-1.54-8.88-3.2-19.87-4.98-32.98-1.25,15.23-1.94,26.35-2.09,33.37l7.07-.39Z"/>
    <path class="st15" d="M150.17,98.61l.88,15.8-12.19.68,3.52,63.13-20.52,1.15-3.52-63.13-12.14.68-.88-15.8,44.85-2.5Z"/>
    <path class="st15" d="M187.33,96.54l16.14,78.28-20.98,1.17-1.89-14.13-7.34.41-.44,14.26-21.22,1.18,6.07-79.51,29.67-1.65ZM179.29,147.9c-1.54-8.88-3.2-19.87-4.98-32.98-1.25,15.23-1.94,26.35-2.09,33.37l7.07-.39Z"/>
    <path class="st15" d="M224.08,94.49l3.52,63.13,12.48-.7.88,15.8-33.01,1.84-4.4-78.93,20.52-1.15Z"/>
    <path class="st15" d="M290.5,137.15c.44,7.93.57,13.56.38,16.88-.19,3.32-1.19,6.4-3.01,9.24-1.82,2.84-4.35,5.08-7.62,6.73-3.27,1.65-7.13,2.6-11.58,2.85s-8.06-.24-11.5-1.44-6.26-3.11-8.46-5.76c-2.2-2.65-3.59-5.59-4.16-8.82-.57-3.23-1.08-8.91-1.54-17.03l-.75-13.5c-.44-7.93-.57-13.56-.38-16.88.19-3.32,1.19-6.4,3.01-9.24,1.81-2.84,4.35-5.08,7.62-6.73,3.27-1.65,7.13-2.6,11.58-2.85s8.06.24,11.5,1.44c3.44,1.19,6.26,3.12,8.46,5.76,2.2,2.65,3.59,5.59,4.16,8.82.57,3.23,1.08,8.91,1.54,17.03l.75,13.5ZM268.53,112.35c-.2-3.67-.54-6.01-1-7.01-.46-1-1.33-1.47-2.6-1.4-1.07.06-1.87.52-2.39,1.38-.52.86-.67,3.32-.44,7.38l2.06,36.86c.26,4.58.6,7.4,1.03,8.45.43,1.05,1.33,1.54,2.7,1.46s2.26-.75,2.58-2c.32-1.26.35-4.21.09-8.86l-2.02-36.27Z"/>
    <path class="st15" d="M342.29,117.04l-20.52,1.15-.4-7.17c-.25-4.52-.6-7.33-1.06-8.45-.45-1.12-1.41-1.63-2.87-1.55-1.27.07-2.1.61-2.5,1.61-.4,1-.49,3.52-.26,7.55l2.11,37.88c.2,3.54.55,5.86,1.07,6.96.52,1.1,1.46,1.61,2.82,1.53,1.49-.08,2.48-.77,2.94-2.07s.6-3.78.39-7.46l-.52-9.36-4.14.23-.67-11.99,24.03-1.34,2.36,42.37-12.9.72-2.21-5.55c-1.26,2.52-2.93,4.44-4.99,5.78-2.06,1.34-4.54,2.09-7.44,2.25-3.45.19-6.72-.46-9.83-1.97-3.1-1.51-5.5-3.45-7.2-5.83-1.7-2.38-2.82-4.92-3.36-7.61-.54-2.69-.96-6.75-1.27-12.18l-1.31-23.45c-.42-7.54-.32-13.04.3-16.5.62-3.46,2.78-6.72,6.47-9.78,3.69-3.06,8.59-4.76,14.7-5.1s11.07.62,15.17,2.87c4.1,2.25,6.85,5.04,8.24,8.37,1.39,3.33,2.27,8.23,2.63,14.7l.19,3.41Z"/>
    <path class="st15" d="M348.62,87.54l34.22-1.91.88,15.8-13.7.76.83,14.97,12.82-.72.84,15.02-12.82.72.97,17.36,15.06-.84.88,15.8-35.59,1.99-4.4-78.93Z"/>
    <path class="st15" d="M436.93,82.62l4.4,78.93-17.99,1-12.68-35.29,2,35.88-17.16.96-4.4-78.93,17.16-.96,13.49,34.9-1.98-35.54,17.16-.96Z"/>
    <path class="st15" d="M285.66,43.45l.9,16.09-14.87.83-.9-16.09,14.87-.83Z"/>
  </g>
  <g class="st57">
    <rect class="st20" x="403.41" y="162.07" width="6.01" height="6.85"/>
    <path class="st20" d="M402.41,169.93v-8.85,8.85Z"/>
    <path class="st59" d="M402.41,169.93v-8.85,8.85Z"/>
    <path class="st46" d="M402.41,169.93v-8.85,8.85Z"/>
    <path class="st54" d="M402.41,169.93v-8.85,8.85Z"/>
    <path class="st34" d="M402.41,169.93v-8.85,8.85Z"/>
    <path class="st34" d="M402.41,169.93v-8.85,8.85Z"/>
    <path class="st14" d="M402.41,169.93v-8.85,8.85Z"/>
    <path class="st29" d="M402.41,169.93v-8.85,8.85Z"/>
    <path class="st18" d="M402.41,169.93v-8.85,8.85Z"/>
    <path class="st6" d="M402.41,169.93v-8.85,8.85Z"/>
    <path class="st39" d="M402.41,169.93v-8.85,8.85Z"/>
    <path class="st32" d="M402.41,169.93v-8.85,8.85Z"/>
    <path class="st32" d="M402.41,169.93v-8.85,8.85Z"/>
    <path class="st37" d="M402.41,169.93v-8.85,8.85Z"/>
    <path class="st41" d="M402.41,169.93v-8.85,8.85Z"/>
    <path class="st58" d="M402.41,169.93v-8.85,8.85Z"/>
    <path class="st53" d="M402.41,169.93v-8.85,8.85Z"/>
    <path class="st31" d="M402.41,169.93v-8.85,8.85Z"/>
    <path class="st26" d="M402.41,169.93v-8.85,8.85Z"/>
    <path class="st28" d="M402.41,169.93v-8.85,8.85Z"/>
    <path class="st23" d="M402.41,169.93v-8.85,8.85Z"/>
    <path class="st1" d="M402.41,169.93v-8.85,8.85Z"/>
    <path class="st9" d="M402.41,169.93v-8.85,8.85Z"/>
    <path class="st44" d="M402.41,169.93v-8.85,8.85Z"/>
    <path class="st43" d="M402.41,169.93v-8.85,8.85Z"/>
    <path class="st50" d="M402.41,169.93v-8.85,8.85Z"/>
    <path class="st35" d="M402.41,169.93v-8.85,8.85Z"/>
    <path class="st24" d="M402.41,169.93v-8.85,8.85Z"/>
    <path class="st51" d="M402.41,169.93v-8.85,8.85Z"/>
    <path class="st30" d="M402.41,169.93v-8.85,8.85Z"/>
    <path class="st63" d="M402.41,169.93v-8.85,8.85Z"/>
    <path class="st49" d="M402.41,169.93v-8.85,8.85Z"/>
    <path class="st10" d="M402.41,169.93v-8.85,8.85Z"/>
    <path class="st33" d="M402.41,169.93v-8.85,8.85Z"/>
    <path class="st2" d="M402.41,169.93v-8.85,8.85Z"/>
    <path class="st36" d="M402.41,169.93v-8.85,8.85Z"/>
    <path class="st16" d="M402.41,169.93v-8.85,8.85Z"/>
    <path class="st4" d="M402.41,169.93v-8.85,8.85Z"/>
    <path class="st7" d="M402.41,169.93v-8.85,8.85Z"/>
    <path class="st5" d="M402.41,169.93v-8.85,8.85Z"/>
    <path class="st55" d="M402.41,169.93v-8.85,8.85Z"/>
    <path class="st21" d="M402.41,169.93v-8.85,8.85Z"/>
    <path class="st62" d="M402.41,169.93v-8.85,8.85Z"/>
    <path class="st17" d="M402.41,169.93v-8.85,8.85Z"/>
    <path class="st47" d="M402.41,169.93v-8.76,8.76Z"/>
    <path class="st22" d="M402.41,169.93v-8.34,8.34Z"/>
    <path class="st40" d="M402.41,169.93v-7.91,7.91Z"/>
    <path class="st12" d="M402.41,169.93v-7.49,7.49Z"/>
    <path class="st19" d="M402.41,169.93v-7.06,7.06Z"/>
    <path class="st56" d="M402.41,169.93v-6.64,6.64Z"/>
    <path class="st60" d="M402.41,169.93v-6.22,6.22Z"/>
    <path class="st48" d="M402.41,169.93v-5.79,5.79Z"/>
    <path class="st42" d="M402.41,169.93v-5.37,5.37Z"/>
    <path class="st3" d="M402.41,169.93v-4.94,4.94Z"/>
    <path class="st38" d="M402.41,169.93v-4.52,4.52Z"/>
    <path class="st38" d="M402.41,169.93v-4.1,4.1Z"/>
    <path class="st52" d="M402.41,169.93v-3.67,3.67Z"/>
    <path class="st61" d="M402.41,169.93v-3.25,3.25Z"/>
    <path class="st11" d="M402.41,169.93v-2.82,2.82Z"/>
    <path class="st27" d="M402.41,169.93v-2.4,2.4Z"/>
    <path class="st8" d="M402.41,169.93v-1.98,1.98Z"/>
    <path class="st13" d="M402.41,169.93v-1.55,1.55Z"/>
    <path class="st25" d="M402.41,169.93v-1.13,1.13Z"/>
    <path class="st45" d="M402.41,169.93v-.7.7Z"/>
    <rect class="st20" x="345.21" y="146.79" width="4.28" height="6.86"/>
    <rect class="st20" x="344.21" y="145.79" width="6.28" height="8.86"/>
    <rect class="st59" x="344.21" y="145.79" width="6.28" height="8.86"/>
    <path class="st46" d="M350.49,154.65h-6.28v-8.59h-1.22c4.12-1.74,8.65-2.71,13.4-2.71l-5.9,2.43v8.86Z"/>
    <path class="st54" d="M350.49,154.65h-6.28v-8.2h-1.06c4.07-1.72,8.54-2.67,13.24-2.67l-5.9,2.01v8.86Z"/>
    <path class="st34" d="M350.49,154.65h-6.28v-7.81h-.89c4.02-1.7,8.44-2.64,13.07-2.64l-5.9,1.59v8.86Z"/>
    <path class="st34" d="M350.49,154.65h-6.28v-7.42h-.73c3.97-1.68,8.33-2.61,12.91-2.61l-5.9,1.16v8.86Z"/>
    <path class="st14" d="M350.49,154.65h-6.28v-7.03h-.56c3.92-1.66,8.22-2.57,12.74-2.57l-5.9.74v8.86Z"/>
    <path class="st29" d="M350.49,154.65h-6.28v-6.64h-.4c3.87-1.63,8.12-2.54,12.58-2.54l-5.9.31v8.86Z"/>
    <path class="st18" d="M350.49,154.65h-6.28v-6.25h-.23c3.81-1.61,8.01-2.51,12.41-2.51h-5.9v8.75Z"/>
    <path class="st6" d="M350.49,154.65h-6.28v-5.86h-.07c3.76-1.59,7.9-2.47,12.25-2.47h-5.9v8.33Z"/>
    <path class="st39" d="M350.49,154.65h-6.28v-2.6h-5.18c1.65-1.12,3.42-2.08,5.27-2.86,3.71-1.57,7.8-2.44,12.08-2.44h-5.9v7.9Z"/>
    <path class="st32" d="M350.49,154.65h-6.28v-2.25h-4.94c1.63-1.1,3.37-2.05,5.2-2.82,3.66-1.55,7.69-2.41,11.92-2.41h-5.9v7.48Z"/>
    <path class="st32" d="M350.49,154.65h-6.28v-1.9h-4.7c1.61-1.09,3.32-2.02,5.13-2.78,3.61-1.53,7.58-2.37,11.75-2.37h-5.9v7.06Z"/>
    <path class="st37" d="M350.49,154.65h-6.28v-1.55h-4.46c1.58-1.07,3.28-1.99,5.06-2.74,3.56-1.51,7.48-2.34,11.59-2.34h-5.9v6.63Z"/>
    <path class="st41" d="M350.49,154.65h-6.28v-1.2h-4.23c1.56-1.05,3.23-1.96,4.98-2.71,3.51-1.48,7.37-2.31,11.42-2.31h-5.9v6.21Z"/>
    <path class="st58" d="M350.49,154.65h-6.28v-.85h-3.99c1.54-1.04,3.18-1.93,4.91-2.67,3.46-1.46,7.26-2.27,11.26-2.27h-5.9v5.78Z"/>
    <path class="st53" d="M350.49,154.65h-6.28v-.49h-3.75c1.52-1.02,3.14-1.91,4.84-2.63,3.41-1.44,7.16-2.24,11.09-2.24h-5.9v5.36Z"/>
    <path class="st31" d="M350.49,154.65h-6.28v-.14h-3.52c1.49-1.01,3.09-1.88,4.77-2.59,3.36-1.42,7.05-2.21,10.93-2.21h-5.9v4.94Z"/>
    <path class="st26" d="M350.49,154.65h-6.28l-3.28.21c1.47-.99,3.04-1.85,4.7-2.55,3.31-1.4,6.94-2.17,10.76-2.17h-5.9v4.51Z"/>
    <path class="st28" d="M350.49,154.65h-6.28l-3.04.56c1.45-.98,3-1.82,4.62-2.51,3.26-1.38,6.84-2.14,10.6-2.14h-5.9v4.09Z"/>
    <path class="st23" d="M350.49,154.65h-6.28l-6.77,4.18c4.85-4.85,11.55-7.85,18.95-7.85h-5.9v3.66Z"/>
    <path class="st1" d="M350.49,154.65h-6.28l-6.47,4.48c4.77-4.77,11.37-7.72,18.65-7.72h-5.9v3.24Z"/>
    <path class="st9" d="M350.49,154.65h-6.28l-6.17,4.78c4.7-4.7,11.18-7.6,18.35-7.6h-5.9v2.82Z"/>
    <path class="st44" d="M350.49,154.65h-6.28l-5.87,5.08c4.62-4.62,11-7.48,18.05-7.48h-5.9v2.39Z"/>
    <path class="st43" d="M350.49,154.65h-6.28l-5.57,5.38c4.54-4.54,10.82-7.35,17.75-7.35h-5.9v1.97Z"/>
    <path class="st50" d="M350.49,154.65h-6.28l-5.27,5.68c4.47-4.47,10.63-7.23,17.45-7.23h-5.9v1.54Z"/>
    <path class="st35" d="M350.49,154.65h-6.28l-4.97,5.98c4.39-4.39,10.45-7.1,17.15-7.1h-5.9v1.12Z"/>
    <path class="st24" d="M350.49,154.65h-6.28l-4.67,6.28c4.31-4.31,10.27-6.98,16.85-6.98h-5.9v.69Z"/>
    <path class="st51" d="M350.49,154.65h-6.28l-4.37,6.58c4.24-4.24,10.09-6.85,16.55-6.85h-5.9v.27Z"/>
    <path class="st30" d="M350.49,154.65h-6.28,6.28Z"/>
    <path class="st63" d="M350.49,154.65h-6.28,6.28Z"/>
    <path class="st49" d="M350.49,154.65h-6.28,6.28Z"/>
    <path class="st10" d="M350.49,154.65h-6.28,6.28Z"/>
    <path class="st33" d="M350.49,154.65h-6.28,6.28Z"/>
    <path class="st2" d="M350.49,154.65h-6.28,6.28Z"/>
    <path class="st36" d="M350.49,154.65h-6.28,6.28Z"/>
    <path class="st16" d="M350.49,154.65h-6.28,6.28Z"/>
    <path class="st4" d="M350.49,154.65h-6.28,6.28Z"/>
    <path class="st7" d="M350.49,154.65h-6.28,6.28Z"/>
    <path class="st5" d="M350.49,154.65h-6.28,6.28Z"/>
    <path class="st55" d="M350.49,154.65h-6.28,6.28Z"/>
    <path class="st21" d="M350.49,154.65h-6.28,6.28Z"/>
    <path class="st62" d="M350.49,154.65h-6.28,6.28Z"/>
    <path class="st17" d="M350.49,154.65h-6.28,6.28Z"/>
    <path class="st47" d="M350.49,154.65h-6.28,6.28Z"/>
    <path class="st22" d="M350.49,154.65h-6.28,6.28Z"/>
    <path class="st40" d="M350.49,154.65h-6.28,6.28Z"/>
    <path class="st12" d="M350.49,154.65h-6.28,6.28Z"/>
    <path class="st19" d="M350.49,154.65h-6.28,6.28Z"/>
    <path class="st56" d="M350.49,154.65h-6.28,6.28Z"/>
    <path class="st60" d="M350.49,154.65h-6.28,6.28Z"/>
    <path class="st48" d="M350.49,154.65h-6.28,6.28Z"/>
    <path class="st42" d="M350.49,154.65h-6.28,6.28Z"/>
    <path class="st3" d="M350.49,154.65h-6.28,6.28Z"/>
    <path class="st38" d="M350.49,154.65h-6.28,6.28Z"/>
    <path class="st38" d="M350.49,154.65h-6.06,6.06Z"/>
    <path class="st52" d="M350.49,154.65h-5.63,5.63Z"/>
    <path class="st61" d="M350.49,154.65h-5.21,5.21Z"/>
    <path class="st11" d="M350.49,154.65h-4.78,4.78Z"/>
    <path class="st27" d="M350.49,154.65h-4.36,4.36Z"/>
    <path class="st8" d="M350.49,154.65h-3.94,3.94Z"/>
    <path class="st13" d="M350.49,154.65h-3.51,3.51Z"/>
    <path class="st25" d="M350.49,154.65h-3.09,3.09Z"/>
    <path class="st45" d="M350.49,154.65h-2.66,2.66Z"/>
    <rect class="st20" x="341.41" y="144.74" width="11.52" height="11.89"/>
    <path class="st20" d="M353.93,157.63h-13.52v-9.1h-3.75c1.88-1.27,3.88-2.36,5.99-3.25,4.22-1.79,8.86-2.77,13.73-2.77l-2.46,1.23v13.89Z"/>
    <path class="st59" d="M353.93,157.63h-13.52v-8.75h-3.51c1.85-1.25,3.84-2.33,5.92-3.21,4.17-1.76,8.75-2.74,13.57-2.74l-2.46.81v13.89Z"/>
    <path class="st46" d="M353.93,157.63h-13.52v-8.4h-3.28c1.83-1.24,3.79-2.3,5.85-3.17,4.12-1.74,8.65-2.71,13.4-2.71l-2.46.38v13.89Z"/>
    <path class="st54" d="M353.93,157.63h-13.52v-8.05h-3.04c1.81-1.22,3.74-2.27,5.78-3.14,4.07-1.72,8.54-2.67,13.24-2.67h-2.46v13.85Z"/>
    <path class="st34" d="M353.93,157.63h-13.52v-7.69h-2.8c1.79-1.21,3.7-2.25,5.7-3.1,4.02-1.7,8.44-2.64,13.07-2.64h-2.46v13.43Z"/>
    <path class="st34" d="M353.93,157.63h-13.52v-7.34h-2.57c1.76-1.19,3.65-2.22,5.63-3.06,3.97-1.68,8.33-2.61,12.91-2.61h-2.46v13Z"/>
    <path class="st14" d="M353.93,157.63h-13.52v-6.99h-2.33c1.74-1.18,3.6-2.19,5.56-3.02,3.92-1.66,8.22-2.57,12.74-2.57h-2.46v12.58Z"/>
    <path class="st29" d="M353.93,157.63h-13.52v-2.69h-6.87c5.85-5.85,13.92-9.46,22.85-9.46h-2.46v12.16Z"/>
    <path class="st18" d="M353.93,157.63h-13.52v-2.39h-6.57c5.77-5.77,13.74-9.34,22.55-9.34h-2.46v11.73Z"/>
    <path class="st6" d="M353.93,157.63h-13.52v-2.09h-6.27c5.69-5.69,13.56-9.22,22.25-9.22h-2.46v11.31Z"/>
    <path class="st39" d="M353.93,157.63h-13.52v-1.79h-5.97c5.62-5.62,13.38-9.09,21.95-9.09h-2.46v10.88Z"/>
    <path class="st32" d="M353.93,157.63h-13.52v-1.49h-5.67c5.54-5.54,13.19-8.97,21.65-8.97h-2.46v10.46Z"/>
    <path class="st32" d="M353.93,157.63h-13.52v-1.19h-5.37c5.46-5.46,13.01-8.84,21.35-8.84h-2.46v10.04Z"/>
    <path class="st37" d="M353.93,157.63h-13.52v-.89h-5.07c5.39-5.39,12.83-8.72,21.05-8.72h-2.46v9.61Z"/>
    <path class="st41" d="M353.93,157.63h-13.52v-.59h-4.77c5.31-5.31,12.65-8.59,20.75-8.59h-2.46v9.19Z"/>
    <path class="st58" d="M353.93,157.63h-13.52v-.29h-4.47c5.23-5.23,12.46-8.47,20.45-8.47h-2.46v8.76Z"/>
    <path class="st53" d="M353.93,157.63h-17.69c5.16-5.15,12.28-8.34,20.15-8.34h-2.46v8.34Z"/>
    <path class="st31" d="M353.93,157.63h-13.52l-3.87.31c5.08-5.08,12.1-8.22,19.85-8.22h-2.46v7.92Z"/>
    <path class="st26" d="M353.93,157.63h-13.52l-3.57.61c5-5,11.91-8.1,19.55-8.1h-2.46v7.49Z"/>
    <path class="st28" d="M353.93,157.63h-13.52l-3.27.91c4.93-4.93,11.73-7.97,19.25-7.97h-2.46v7.07Z"/>
    <path class="st23" d="M353.93,157.63h-13.52l-2.97,1.21c4.85-4.85,11.55-7.85,18.95-7.85h-2.46v6.64Z"/>
    <path class="st1" d="M353.93,157.63h-13.52l-2.67,1.51c4.77-4.77,11.37-7.72,18.65-7.72h-2.46v6.22Z"/>
    <path class="st9" d="M353.93,157.63h-13.52l-2.37,1.81c4.7-4.7,11.18-7.6,18.35-7.6h-2.46v5.79Z"/>
    <path class="st44" d="M353.93,157.63h-13.52l-2.07,2.11c4.62-4.62,11-7.48,18.05-7.48h-2.46v5.37Z"/>
    <path class="st43" d="M353.93,157.63h-13.52l-1.77,2.41c4.54-4.54,10.82-7.35,17.75-7.35h-2.46v4.95Z"/>
    <path class="st50" d="M353.93,157.63h-13.52l-1.47,2.71c4.47-4.47,10.63-7.23,17.45-7.23h-2.46v4.52Z"/>
    <path class="st35" d="M353.93,157.63h-13.52l-1.18,3c4.39-4.39,10.45-7.1,17.15-7.1h-2.46v4.1Z"/>
    <path class="st24" d="M353.93,157.63h-13.52l-.88,3.3c4.31-4.31,10.27-6.98,16.85-6.98h-2.46v3.67Z"/>
    <path class="st51" d="M353.93,157.63h-13.52l-.58,3.6c4.24-4.24,10.09-6.85,16.55-6.85h-2.46v3.25Z"/>
    <path class="st30" d="M353.93,157.63h-13.52l-.28,3.9c4.16-4.16,9.9-6.73,16.25-6.73h-2.46v2.83Z"/>
    <path class="st63" d="M353.93,157.63h-13.52.02v4.2c4.08-4.08,9.72-6.61,15.95-6.61h-2.46v2.4Z"/>
    <path class="st49" d="M353.93,157.63h-13.52.32v4.5c4.01-4.01,9.54-6.48,15.65-6.48h-2.46v1.98Z"/>
    <path class="st10" d="M353.93,157.63h-13.52.62v4.8c3.93-3.93,9.36-6.36,15.35-6.36h-2.46v1.55Z"/>
    <path class="st33" d="M353.93,157.63h-13.52.92v5.1c3.85-3.85,9.17-6.23,15.05-6.23h-2.46v1.13Z"/>
    <path class="st2" d="M353.93,157.63h-13.52,1.22v5.4c3.77-3.77,8.99-6.11,14.75-6.11h-2.46v.71Z"/>
    <path class="st36" d="M353.93,157.63h-13.52,1.52v5.7c3.7-3.7,8.81-5.99,14.45-5.99h-2.46v.28Z"/>
    <path class="st16" d="M353.93,157.63h-13.52,13.52Z"/>
    <path class="st4" d="M353.93,157.63h-13.52,13.52Z"/>
    <path class="st7" d="M353.93,157.63h-13.52,13.52Z"/>
    <path class="st5" d="M353.93,157.63h-13.52,13.52Z"/>
    <path class="st55" d="M353.93,157.63h-13.52,13.52Z"/>
    <path class="st21" d="M353.93,157.63h-13.52,13.52Z"/>
    <path class="st62" d="M353.93,157.63h-13.52,13.52Z"/>
    <path class="st17" d="M353.93,157.63h-13.52,13.52Z"/>
    <path class="st47" d="M353.93,157.63h-13.52,13.52Z"/>
    <path class="st22" d="M353.93,157.63h-13.52,13.52Z"/>
    <path class="st40" d="M353.93,157.63h-13.31,13.31Z"/>
    <path class="st12" d="M353.93,157.63h-12.89,12.89Z"/>
    <path class="st19" d="M353.93,157.63h-12.46,12.46Z"/>
    <path class="st56" d="M353.93,157.63h-12.04,12.04Z"/>
    <path class="st60" d="M353.93,157.63h-11.62,11.62Z"/>
    <path class="st48" d="M353.93,157.63h-11.19,11.19Z"/>
    <path class="st42" d="M353.93,157.63h-10.77,10.77Z"/>
    <path class="st3" d="M353.93,157.63h-10.34,10.34Z"/>
    <path class="st38" d="M353.93,157.63h-9.92,9.92Z"/>
    <path class="st38" d="M353.93,157.63h-9.5,9.5Z"/>
    <path class="st52" d="M353.93,157.63h-9.07,9.07Z"/>
    <path class="st61" d="M353.93,157.63h-8.65,8.65Z"/>
    <path class="st11" d="M353.93,157.63h-8.22,8.22Z"/>
    <path class="st27" d="M353.93,157.63h-7.8,7.8Z"/>
    <path class="st8" d="M353.93,157.63h-7.38,7.38Z"/>
    <path class="st13" d="M353.93,157.63h-6.95,6.95Z"/>
    <path class="st25" d="M353.93,157.63h-6.53,6.53Z"/>
    <path class="st45" d="M353.93,157.63h-6.1,6.1Z"/>
    <rect class="st20" x="381.29" y="172.46" width="2.85" height="5.35"/>
    <polygon class="st20" points="385.14 177.78 385.14 178.82 380.29 178.82 380.29 171.46 385.14 171.46 385.14 177.78"/>
    <polygon class="st59" points="385.14 177.78 385.14 178.82 380.29 178.82 380.29 171.46 385.14 171.46 385.14 177.78"/>
    <polygon class="st46" points="385.14 177.78 385.14 178.82 380.29 178.82 380.29 171.46 385.14 171.46 385.14 177.78"/>
    <polygon class="st54" points="385.14 177.78 385.14 178.82 380.29 178.82 380.29 171.46 385.14 171.46 385.14 177.78"/>
    <polygon class="st34" points="385.14 177.78 385.14 178.82 380.29 178.82 380.29 171.46 385.14 171.46 385.14 177.78"/>
    <polygon class="st34" points="385.14 177.78 385.14 178.82 380.29 178.82 380.29 171.46 385.14 171.46 385.14 177.78"/>
    <polygon class="st14" points="385.14 177.78 385.14 178.82 380.29 178.82 380.29 171.46 385.14 171.46 385.14 177.78"/>
    <polygon class="st29" points="385.14 177.78 385.14 178.82 380.29 178.82 380.29 171.46 385.14 171.46 385.14 177.78"/>
    <polygon class="st18" points="385.14 177.78 385.14 178.82 380.29 178.82 380.29 171.46 385.14 171.46 385.14 177.78"/>
    <polygon class="st6" points="385.14 177.78 385.14 178.82 380.29 178.82 380.29 171.46 385.14 171.46 385.14 177.78"/>
    <path class="st39" d="M385.14,177.78v1.03h-4.85v-7.35h4.7v-5.76c1.57,3.71,2.44,7.8,2.44,12.08h-2.29Z"/>
    <path class="st32" d="M385.14,177.78v1.03h-4.85v-7.35h4.31v-5.6c1.55,3.66,2.41,7.69,2.41,11.92h-1.86Z"/>
    <path class="st32" d="M385.14,177.78v1.03h-4.85v-7.35h3.92v-5.43c1.53,3.61,2.37,7.58,2.37,11.75h-1.44Z"/>
    <path class="st37" d="M385.14,177.78v1.03h-4.85v-7.35h3.53v-5.27c1.51,3.56,2.34,7.48,2.34,11.59h-1.02Z"/>
    <path class="st41" d="M385.73,177.78c0,2.03-.21,4-.6,5.91v-4.88h-4.85v-7.35h3.14v-5.1c1.48,3.51,2.31,7.37,2.31,11.42Z"/>
    <path class="st58" d="M385.3,177.78c0,2-.2,3.95-.59,5.83v-4.8h-4.43v-7.35h2.75v-4.94c1.46,3.46,2.27,7.26,2.27,11.26Z"/>
    <path class="st53" d="M384.88,177.78c0,1.97-.2,3.89-.58,5.74v-4.71h-4.01v-7.35h2.35v-4.77c1.44,3.41,2.24,7.16,2.24,11.09Z"/>
    <path class="st31" d="M384.46,177.78c0,1.94-.2,3.83-.57,5.66v-4.62h-3.6v-7.35h1.96v-4.6c1.42,3.36,2.21,7.05,2.21,10.93Z"/>
    <path class="st26" d="M384.03,177.78c0,1.91-.19,3.77-.56,5.57v-4.54h-3.18v-7.35h1.57v-4.44c1.4,3.31,2.17,6.94,2.17,10.76Z"/>
    <path class="st28" d="M383.61,177.78c0,1.88-.19,3.71-.55,5.49v-4.45h-2.77v-7.35h1.18v-4.27c1.38,3.26,2.14,6.84,2.14,10.6Z"/>
    <path class="st23" d="M383.18,177.78c0,1.85-.19,3.66-.54,5.4v-4.37h-2.35v-7.35h.79v-4.11c1.36,3.21,2.11,6.73,2.11,10.43Z"/>
    <path class="st1" d="M382.76,177.78c0,1.82-.18,3.6-.54,5.32v-4.28h-1.94v-7.35h.4v-3.94c1.33,3.16,2.07,6.62,2.07,10.27Z"/>
    <path class="st9" d="M382.34,177.78c0,1.79-.18,3.54-.53,5.23v-4.2h-1.52v-7.35h0v-3.78c1.31,3.1,2.04,6.52,2.04,10.1Z"/>
    <path class="st44" d="M381.91,177.78c0,1.76-.18,3.48-.52,5.14v-4.11h-1.11v-7.35l-.38-3.61c1.29,3.05,2.01,6.41,2.01,9.94Z"/>
    <path class="st43" d="M381.49,177.78c0,1.73-.18,3.42-.51,5.06v-4.03h-.69v-7.35l-.77-3.45c1.27,3,1.97,6.3,1.97,9.77Z"/>
    <path class="st50" d="M381.06,177.78c0,1.7-.17,3.37-.5,4.97v-3.94h-.28v-7.35l-1.16-3.28c1.25,2.95,1.94,6.2,1.94,9.61Z"/>
    <path class="st35" d="M380.64,177.78c0,1.67-.17,3.31-.49,4.89l.14-3.86v-7.35l-1.55-3.12c1.23,2.9,1.91,6.09,1.91,9.44Z"/>
    <path class="st24" d="M380.29,177.78v1.03-1.03Z"/>
    <path class="st51" d="M380.29,177.78v1.03-1.03Z"/>
    <path class="st30" d="M380.29,177.78v1.03-1.03Z"/>
    <path class="st63" d="M380.29,177.78v1.03-1.03Z"/>
    <path class="st49" d="M380.29,177.78v1.03-1.03Z"/>
    <path class="st10" d="M380.29,177.78v1.03-1.03Z"/>
    <path class="st33" d="M380.29,177.78v1.03-1.03Z"/>
    <path class="st2" d="M380.29,177.78v1.03-1.03Z"/>
    <path class="st36" d="M380.29,177.78v1.03-1.03Z"/>
    <path class="st16" d="M380.29,177.78v1.03-1.03Z"/>
    <path class="st4" d="M380.29,177.78v1.03-1.03Z"/>
    <path class="st7" d="M380.29,177.78v1.03-1.03Z"/>
    <path class="st5" d="M380.29,177.78v1.03-1.03Z"/>
    <path class="st55" d="M380.29,177.78v1.03-1.03Z"/>
    <path class="st21" d="M380.29,177.78v1.03-1.03Z"/>
    <path class="st62" d="M380.29,177.78v1.03-1.03Z"/>
    <path class="st17" d="M380.29,177.78v1.03-1.03Z"/>
    <path class="st47" d="M380.29,177.78v1.03-1.03Z"/>
    <path class="st22" d="M380.29,177.78v1.03-1.03Z"/>
    <path class="st40" d="M380.29,177.78v1.03-1.03Z"/>
    <path class="st12" d="M380.29,177.78v1.03-1.03Z"/>
    <path class="st19" d="M380.29,177.78v1.03-1.03Z"/>
    <path class="st56" d="M380.29,177.78v1.03-1.03Z"/>
    <path class="st60" d="M380.29,177.78v1.03-1.03Z"/>
    <path class="st48" d="M380.29,177.78v1.03-1.03Z"/>
    <path class="st42" d="M380.29,177.78v1.03-1.03Z"/>
    <path class="st3" d="M380.29,177.78v1.03-1.03Z"/>
    <path class="st38" d="M380.29,177.78v1.03-1.03Z"/>
    <path class="st38" d="M380.29,177.78v1.03-1.03Z"/>
    <path class="st52" d="M380.29,177.78v1.03-1.03Z"/>
    <path class="st61" d="M380.29,177.78v1.03-1.03Z"/>
    <path class="st11" d="M380.29,177.78v1.03-1.03Z"/>
    <path class="st27" d="M380.29,177.78v1.03-1.03Z"/>
    <path class="st8" d="M380.29,177.78v1.03-1.03Z"/>
    <path class="st13" d="M380.29,177.78v1.03-1.03Z"/>
    <path class="st25" d="M380.29,177.78v1.03-1.03Z"/>
    <path class="st45" d="M380.29,177.78v1.03-1.03Z"/>
    <rect class="st20" x="365.37" y="173.78" width="3.61" height="5.11"/>
    <polygon class="st20" points="369.99 177.78 369.99 179.89 364.37 179.89 364.37 172.78 369.99 172.78 369.99 177.78"/>
    <polygon class="st59" points="369.99 177.78 369.99 179.89 364.37 179.89 364.37 172.78 369.99 172.78 369.99 177.78"/>
    <polygon class="st46" points="369.99 177.78 369.99 179.89 364.37 179.89 364.37 172.78 369.99 172.78 369.99 177.78"/>
    <polygon class="st54" points="369.99 177.78 369.99 179.89 364.37 179.89 364.37 172.78 369.99 172.78 369.99 177.78"/>
    <polygon class="st34" points="369.99 177.78 369.99 179.89 364.37 179.89 364.37 172.78 369.99 172.78 369.99 177.78"/>
    <polygon class="st34" points="369.99 177.78 369.99 179.89 364.37 179.89 364.37 172.78 369.99 172.78 369.99 177.78"/>
    <polygon class="st14" points="369.99 177.78 369.99 179.89 364.37 179.89 364.37 172.78 369.99 172.78 369.99 177.78"/>
    <polygon class="st29" points="369.99 177.78 369.99 179.89 364.37 179.89 364.37 172.78 369.99 172.78 369.99 177.78"/>
    <polygon class="st18" points="369.99 177.78 369.99 179.89 364.37 179.89 364.37 172.78 369.99 172.78 369.99 177.78"/>
    <polygon class="st6" points="369.99 177.78 369.99 179.89 364.37 179.89 364.37 172.78 369.99 172.78 369.99 177.78"/>
    <polygon class="st39" points="369.99 177.78 369.99 179.89 364.37 179.89 364.37 172.78 369.99 172.78 369.99 177.78"/>
    <polygon class="st32" points="369.99 177.78 369.99 179.89 364.37 179.89 364.37 172.78 369.99 172.78 369.99 177.78"/>
    <polygon class="st32" points="369.99 177.78 369.99 179.89 364.37 179.89 364.37 172.78 369.99 172.78 369.99 177.78"/>
    <polygon class="st37" points="369.99 177.78 369.99 179.89 364.37 179.89 364.37 172.78 369.99 172.78 369.99 177.78"/>
    <polygon class="st41" points="369.99 177.78 369.99 179.89 364.37 179.89 364.37 172.78 369.99 172.78 369.99 177.78"/>
    <polygon class="st58" points="369.99 177.78 369.99 179.89 364.37 179.89 364.37 172.78 369.99 172.78 369.99 177.78"/>
    <polygon class="st53" points="369.99 177.78 369.99 179.89 364.37 179.89 364.37 172.78 369.99 172.78 369.99 177.78"/>
    <polygon class="st31" points="369.99 177.78 369.99 179.89 364.37 179.89 364.37 172.78 369.99 172.78 369.99 177.78"/>
    <polygon class="st26" points="369.99 177.78 369.99 179.89 364.37 179.89 364.37 172.78 369.99 172.78 369.99 177.78"/>
    <polygon class="st28" points="369.99 177.78 369.99 179.89 364.37 179.89 364.37 172.78 369.99 172.78 369.99 177.78"/>
    <polygon class="st23" points="369.99 177.78 369.99 179.89 364.37 179.89 364.37 172.78 369.99 172.78 369.99 177.78"/>
    <polygon class="st1" points="369.99 177.78 369.99 179.89 364.37 179.89 364.37 172.78 369.99 172.78 369.99 177.78"/>
    <polygon class="st9" points="369.99 177.78 369.99 179.89 364.37 179.89 364.37 172.78 369.99 172.78 369.99 177.78"/>
    <polygon class="st44" points="369.99 177.78 369.99 179.89 364.37 179.89 364.37 172.78 369.99 172.78 369.99 177.78"/>
    <polygon class="st43" points="369.99 177.78 369.99 179.89 364.37 179.89 364.37 172.78 369.99 172.78 369.99 177.78"/>
    <polygon class="st50" points="369.99 177.78 369.99 179.89 364.37 179.89 364.37 172.78 369.99 172.78 369.99 177.78"/>
    <polygon class="st35" points="369.99 177.78 369.99 179.89 364.37 179.89 364.37 172.78 369.99 172.78 369.99 177.78"/>
    <polygon class="st24" points="369.99 177.78 369.99 179.89 364.37 179.89 364.37 172.78 369.99 172.78 369.99 177.78"/>
    <polygon class="st51" points="369.99 177.78 369.99 179.89 364.37 179.89 364.37 172.78 369.99 172.78 369.99 177.78"/>
    <polygon class="st30" points="369.99 177.78 369.99 179.89 364.37 179.89 364.37 172.78 369.99 172.78 369.99 177.78"/>
    <polygon class="st63" points="369.99 177.78 369.99 179.89 364.37 179.89 364.37 172.78 369.99 172.78 369.99 177.78"/>
    <polygon class="st49" points="369.99 177.78 369.99 179.89 364.37 179.89 364.37 172.78 369.99 172.78 369.99 177.78"/>
    <polygon class="st10" points="369.99 177.78 369.99 179.89 364.37 179.89 364.37 172.78 369.99 172.78 369.99 177.78"/>
    <polygon class="st33" points="369.99 177.78 369.99 179.89 364.37 179.89 364.37 172.78 369.99 172.78 369.99 177.78"/>
    <polygon class="st2" points="369.99 177.78 369.99 179.89 364.37 179.89 364.37 172.78 369.99 172.78 369.99 177.78"/>
    <polygon class="st36" points="369.99 177.78 369.99 179.89 364.37 179.89 364.37 172.78 369.99 172.78 369.99 177.78"/>
    <polygon class="st16" points="369.99 177.78 369.99 179.89 364.37 179.89 364.37 172.78 369.99 172.78 369.99 177.78"/>
    <polygon class="st4" points="369.99 177.78 369.99 179.89 364.37 179.89 364.37 172.78 369.99 172.78 369.99 177.78"/>
    <polygon class="st7" points="369.99 177.78 369.99 179.89 364.37 179.89 364.37 172.78 369.99 172.78 369.99 177.78"/>
    <polygon class="st5" points="369.99 177.78 369.99 179.89 364.37 179.89 364.37 172.78 369.99 172.78 369.99 177.78"/>
    <polygon class="st55" points="369.99 177.78 369.99 179.89 364.37 179.89 364.37 172.78 369.99 172.78 369.99 177.78"/>
    <polygon class="st21" points="369.99 177.78 369.99 179.89 364.37 179.89 364.37 172.78 369.99 172.78 369.99 177.78"/>
    <polygon class="st62" points="369.99 177.78 369.99 179.89 364.37 179.89 364.37 172.78 369.99 172.78 369.99 177.78"/>
    <polygon class="st17" points="369.99 177.78 369.99 179.89 364.37 179.89 364.37 172.78 369.99 172.78 369.99 177.78"/>
    <path class="st47" d="M369.99,177.78v2.11h-5.61v-7.11h3.77v-6.75c3.01,3.01,4.87,7.16,4.87,11.75h-3.02Z"/>
    <path class="st22" d="M369.99,177.78v2.11h-5.61v-7.11h3.47v-6.45c2.93,2.93,4.74,6.98,4.74,11.45h-2.6Z"/>
    <path class="st40" d="M369.99,177.78v2.11h-5.61v-7.11h3.17v-6.15c2.85,2.85,4.62,6.8,4.62,11.15h-2.17Z"/>
    <path class="st12" d="M369.99,177.78v2.11h-5.61v-7.11h2.87v-5.85c2.78,2.78,4.49,6.61,4.49,10.85h-1.75Z"/>
    <path class="st19" d="M369.99,177.78v2.11h-5.61v-7.11h2.57v-5.55c2.7,2.7,4.37,6.43,4.37,10.55h-1.32Z"/>
    <path class="st56" d="M370.88,177.78c0,2-.41,3.91-1.14,5.64v-3.54h-5.37v-7.11h2.27v-5.25c2.62,2.62,4.25,6.25,4.25,10.25Z"/>
    <path class="st60" d="M370.46,177.78c0,1.94-.39,3.79-1.11,5.48v-3.37h-4.98v-7.11h1.97v-4.95c2.55,2.55,4.12,6.07,4.12,9.95Z"/>
    <path class="st48" d="M370.04,177.78c0,1.88-.38,3.68-1.07,5.31v-3.21h-4.59v-7.11h1.67v-4.65c2.47,2.47,4,5.88,4,9.65Z"/>
    <path class="st42" d="M369.61,177.78c0,1.83-.37,3.57-1.04,5.15v-3.04h-4.2v-7.11h1.37v-4.35c2.39,2.39,3.87,5.7,3.87,9.35Z"/>
    <path class="st3" d="M369.19,177.78c0,3.53-1.43,6.74-3.75,9.05v-6.95h-1.07v-7.11h1.07v-4.05c2.32,2.32,3.75,5.52,3.75,9.05Z"/>
    <path class="st38" d="M368.76,177.78c0,3.42-1.39,6.51-3.63,8.75v-6.65h-.77v-7.11h.77v-3.75c2.24,2.24,3.63,5.33,3.63,8.75Z"/>
    <path class="st38" d="M368.34,177.78c0,3.3-1.34,6.29-3.5,8.45v-6.35h-.47v-7.11h.47v-3.45c2.16,2.16,3.5,5.15,3.5,8.45Z"/>
    <path class="st52" d="M367.92,177.78c0,3.18-1.29,6.07-3.38,8.15v-6.05h-.17v-7.11h.17v-3.15c2.09,2.09,3.38,4.97,3.38,8.15Z"/>
    <path class="st61" d="M367.49,177.78c0,3.07-1.24,5.84-3.25,7.85l.13-5.75v-7.11l-.13-2.85c2.01,2.01,3.25,4.79,3.25,7.85Z"/>
    <path class="st11" d="M367.07,177.78c0,2.95-1.2,5.62-3.13,7.55l.43-5.45v-7.11l-.43-2.55c1.93,1.93,3.13,4.6,3.13,7.55Z"/>
    <path class="st27" d="M366.64,177.78c0,2.83-1.15,5.4-3,7.25l.73-5.15v-7.11l-.73-2.25c1.86,1.86,3,4.42,3,7.25Z"/>
    <path class="st8" d="M366.22,177.78c0,2.72-1.1,5.17-2.88,6.95l1.03-4.85v-7.11l-1.03-1.95c1.78,1.78,2.88,4.24,2.88,6.95Z"/>
    <path class="st13" d="M365.8,177.78c0,2.6-1.05,4.95-2.76,6.65l1.33-4.55v-7.11l-1.33-1.65c1.7,1.7,2.76,4.05,2.76,6.65Z"/>
    <path class="st25" d="M365.37,177.78c0,2.48-1.01,4.73-2.63,6.35l1.63-4.25v-7.11l-1.63-1.35c1.63,1.63,2.63,3.87,2.63,6.35Z"/>
    <path class="st45" d="M364.95,177.78c0,2.36-.96,4.5-2.51,6.05l1.93-3.95v-7.11l-1.93-1.05c1.55,1.55,2.51,3.69,2.51,6.05Z"/>
    <rect class="st20" x="340.96" y="160.8" width="5.3" height="12.42"/>
    <rect class="st20" x="339.96" y="159.8" width="7.3" height="14.42"/>
    <rect class="st59" x="339.96" y="159.8" width="7.3" height="14.42"/>
    <rect class="st46" x="339.96" y="159.8" width="7.3" height="14.42"/>
    <rect class="st54" x="339.96" y="159.8" width="7.3" height="14.42"/>
    <rect class="st34" x="339.96" y="159.8" width="7.3" height="14.42"/>
    <rect class="st34" x="339.96" y="159.8" width="7.3" height="14.42"/>
    <rect class="st14" x="339.96" y="159.8" width="7.3" height="14.42"/>
    <rect class="st29" x="339.96" y="159.8" width="7.3" height="14.42"/>
    <rect class="st18" x="339.96" y="159.8" width="7.3" height="14.42"/>
    <rect class="st6" x="339.96" y="159.8" width="7.3" height="14.42"/>
    <rect class="st39" x="339.96" y="159.8" width="7.3" height="14.42"/>
    <rect class="st32" x="339.96" y="159.8" width="7.3" height="14.42"/>
    <rect class="st32" x="339.96" y="159.8" width="7.3" height="14.42"/>
    <rect class="st37" x="339.96" y="159.8" width="7.3" height="14.42"/>
    <rect class="st41" x="339.96" y="159.8" width="7.3" height="14.42"/>
    <rect class="st58" x="339.96" y="159.8" width="7.3" height="14.42"/>
    <rect class="st53" x="339.96" y="159.8" width="7.3" height="14.42"/>
    <rect class="st31" x="339.96" y="159.8" width="7.3" height="14.42"/>
    <rect class="st26" x="339.96" y="159.8" width="7.3" height="14.42"/>
    <rect class="st28" x="339.96" y="159.8" width="7.3" height="14.42"/>
    <rect class="st23" x="339.96" y="159.8" width="7.3" height="14.42"/>
    <rect class="st1" x="339.96" y="159.8" width="7.3" height="14.42"/>
    <rect class="st9" x="339.96" y="159.8" width="7.3" height="14.42"/>
    <rect class="st44" x="339.96" y="159.8" width="7.3" height="14.42"/>
    <path class="st43" d="M347.26,174.23h-7.3v-14.19h-1.33c2.27-2.27,4.98-4.11,7.98-5.38v5.15h.65v14.42Z"/>
    <path class="st50" d="M347.26,174.23h-7.3v-13.89h-1.03c2.23-2.23,4.89-4.04,7.84-5.29v4.76h.48v14.42Z"/>
    <path class="st35" d="M347.26,174.23h-7.3v-13.59h-.73c2.19-2.19,4.81-3.97,7.71-5.2v4.37h.32v14.42Z"/>
    <path class="st24" d="M347.26,174.23h-7.3v-13.29h-.43c2.16-2.16,4.72-3.9,7.57-5.11v3.98h.15v14.42Z"/>
    <path class="st51" d="M347.26,174.23h-7.3v-12.99h-.13c2.12-2.12,4.64-3.83,7.44-5.02v3.59s-.01,14.42-.01,14.42Z"/>
    <path class="st30" d="M347.26,174.23h-7.3l-6.56,3.55c0-6.35,2.57-12.09,6.73-16.25,2.08-2.08,4.56-3.76,7.3-4.92l-.18,3.19v14.42Z"/>
    <path class="st63" d="M347.26,174.23h-7.3l-6.13,3.55c0-6.23,2.52-11.87,6.61-15.95,2.04-2.04,4.47-3.69,7.17-4.83l-.34,2.8v14.42Z"/>
    <path class="st49" d="M347.26,174.23h-7.3l-5.71,3.55c0-6.11,2.48-11.64,6.48-15.65,2-2,4.39-3.62,7.03-4.74l-.51,2.41v14.42Z"/>
    <path class="st10" d="M347.26,174.23h-7.3l-5.28,3.55c0-5.99,2.43-11.42,6.36-15.35,1.96-1.96,4.3-3.55,6.9-4.65l-.68,2.02v14.42Z"/>
    <path class="st33" d="M347.26,174.23h-7.3l-4.86,3.55c0-5.88,2.38-11.2,6.23-15.05,1.93-1.93,4.22-3.48,6.77-4.56l-.84,1.63v14.42Z"/>
    <path class="st2" d="M347.26,174.23h-7.3l-4.44,3.55c0-5.76,2.33-10.97,6.11-14.75,1.89-1.89,4.13-3.41,6.63-4.47l-1.01,1.24v14.42Z"/>
    <path class="st36" d="M347.26,174.23h-7.3l-4.01,3.55c0-5.64,2.29-10.75,5.99-14.45,1.85-1.85,4.05-3.35,6.5-4.38l-1.17.85v14.42Z"/>
    <path class="st16" d="M347.26,174.23h-7.3l-3.59,3.55c0-5.53,2.24-10.53,5.86-14.15,1.81-1.81,3.97-3.28,6.36-4.29l-1.34.46v14.42Z"/>
    <path class="st4" d="M347.26,174.23h-7.3l-3.16,3.55c0-5.41,2.19-10.31,5.74-13.85,1.77-1.77,3.88-3.21,6.23-4.2l-1.5.07v14.42Z"/>
    <path class="st7" d="M347.26,174.23h-7.3l-2.74,3.55c0-5.29,2.14-10.08,5.61-13.55,1.73-1.73,3.8-3.14,6.09-4.11h-1.67v14.1Z"/>
    <path class="st5" d="M347.26,174.23h-7.3l-2.32,3.55c0-5.17,2.1-9.86,5.49-13.25,1.7-1.7,3.71-3.07,5.96-4.02h-1.83v13.71Z"/>
    <path class="st55" d="M347.26,174.23h-7.3l-1.89,3.55c0-5.06,2.05-9.64,5.36-12.95,1.66-1.66,3.63-3,5.82-3.92h-2v13.32Z"/>
    <path class="st21" d="M347.26,174.23h-7.3l-1.47,3.55c0-4.94,2-9.41,5.24-12.65,1.62-1.62,3.55-2.93,5.69-3.83h-2.16v12.93Z"/>
    <path class="st62" d="M347.26,174.23h-7.3l-1.04,3.55c0-4.82,1.95-9.19,5.12-12.35,1.58-1.58,3.46-2.86,5.55-3.74h-2.33v12.54Z"/>
    <path class="st17" d="M347.26,174.23h-7.3l-.62,3.55c0-4.71,1.91-8.97,4.99-12.05,1.54-1.54,3.38-2.79,5.42-3.65h-2.49v12.15Z"/>
    <path class="st47" d="M347.26,174.23h-7.3l-.2,3.55c0-4.59,1.86-8.74,4.87-11.75,1.5-1.5,3.29-2.72,5.28-3.56h-2.66v11.76Z"/>
    <path class="st22" d="M347.26,174.23h-7.07v3.55c0-4.47,1.81-8.52,4.74-11.45,1.47-1.47,3.21-2.65,5.15-3.47h-2.82v11.37Z"/>
    <path class="st40" d="M347.26,174.23h-6.65v3.55c0-4.35,1.77-8.3,4.62-11.15,1.43-1.43,3.13-2.58,5.01-3.38h-2.99v10.98Z"/>
    <path class="st12" d="M347.26,174.23h-6.22v3.55c0-4.24,1.72-8.07,4.49-10.85,1.39-1.39,3.04-2.51,4.88-3.29h-3.15v10.59Z"/>
    <path class="st19" d="M347.26,174.23h-5.8v3.55c0-4.12,1.67-7.85,4.37-10.55,1.35-1.35,2.96-2.44,4.74-3.2h-3.32v10.19Z"/>
    <path class="st56" d="M347.26,174.23h-5.37v3.55c0-4,1.62-7.63,4.25-10.25,1.31-1.31,2.87-2.37,4.61-3.11h-3.48v9.8Z"/>
    <path class="st60" d="M347.26,174.23h-4.95v3.55c0-3.89,1.58-7.4,4.12-9.95,1.27-1.27,2.79-2.3,4.47-3.02h-3.65v9.41Z"/>
    <path class="st48" d="M347.26,174.23h-4.52v3.55c0-3.77,1.53-7.18,4-9.65,1.24-1.24,2.71-2.23,4.34-2.93h-3.81v9.02Z"/>
    <path class="st42" d="M347.26,174.23h-4.1v3.55c0-3.65,1.48-6.96,3.87-9.35,1.2-1.2,2.62-2.17,4.2-2.83h-3.98v8.63Z"/>
    <path class="st3" d="M347.26,174.23h-3.68v3.55c0-3.53,1.43-6.74,3.75-9.05h-.07v5.5Z"/>
    <path class="st38" d="M347.26,174.23h-3.25v3.55c0-3.42,1.39-6.51,3.63-8.75h-.37v5.2Z"/>
    <path class="st38" d="M347.26,174.23h-2.83v3.55c0-3.3,1.34-6.29,3.5-8.45h-.67v4.9Z"/>
    <path class="st52" d="M347.26,174.23h-2.4v3.55c0-3.18,1.29-6.07,3.38-8.15h-.97v4.6Z"/>
    <path class="st61" d="M347.26,174.23h-1.98v3.55c0-3.07,1.24-5.84,3.25-7.85h-1.27v4.3Z"/>
    <path class="st11" d="M347.26,174.23h-1.56v3.55c0-2.95,1.2-5.62,3.13-7.55h-1.57v4Z"/>
    <path class="st27" d="M347.26,174.23h-1.13v3.55c0-2.83,1.15-5.4,3-7.25h-1.87v3.7Z"/>
    <path class="st8" d="M347.26,174.23h-.71v3.55c0-2.72,1.1-5.17,2.88-6.95h-2.17v3.4Z"/>
    <path class="st13" d="M347.26,174.23h-.28v3.55c0-2.6,1.05-4.95,2.76-6.65h-2.47v3.1Z"/>
    <path class="st25" d="M347.26,174.23v-5.43,5.43Z"/>
    <path class="st45" d="M347.26,174.23v-5.01,5.01Z"/>
    <rect class="st20" x="319.66" y="157.29" width="95.71" height="31.23"/>
    <path class="st20" d="M391.67,177.78c0,4.87-.99,9.51-2.77,13.73v-2h-65.01v2c-1.79-4.22-2.77-8.86-2.77-13.73,0-9.74,3.95-18.56,10.33-24.95v3.45h49.89v-3.45c6.38,6.38,10.33,15.2,10.33,24.95Z"/>
    <path class="st59" d="M391.24,177.78c0,4.81-.98,9.4-2.74,13.57v-1.83h-64.23v1.83c-1.76-4.17-2.74-8.75-2.74-13.57,0-9.62,3.9-18.34,10.21-24.65v3.15h49.29v-3.15c6.31,6.31,10.21,15.02,10.21,24.65Z"/>
    <path class="st46" d="M390.82,177.78c0,4.75-.96,9.28-2.71,13.4v-1.67h-63.45v1.67c-1.74-4.12-2.71-8.65-2.71-13.4,0-9.51,3.85-18.12,10.08-24.35v2.85h48.69v-2.85c6.23,6.23,10.08,14.84,10.08,24.35Z"/>
    <path class="st54" d="M390.39,177.78c0,4.7-.95,9.17-2.67,13.24v-1.5h-62.67v1.5c-1.72-4.07-2.67-8.54-2.67-13.24,0-9.39,3.81-17.89,9.96-24.05v2.55h48.09v-2.55c6.15,6.15,9.96,14.66,9.96,24.05Z"/>
    <path class="st34" d="M389.97,177.78c0,4.64-.94,9.05-2.64,13.07v-1.34h-61.89v1.34c-1.7-4.02-2.64-8.44-2.64-13.07,0-9.27,3.76-17.67,9.84-23.75v2.25h47.49v-2.25c6.08,6.08,9.84,14.47,9.84,23.75Z"/>
    <path class="st34" d="M389.55,177.78c0,4.58-.93,8.94-2.61,12.91v-1.17h-61.11v1.17c-1.68-3.97-2.61-8.33-2.61-12.91,0-9.16,3.71-17.45,9.71-23.45v1.95h46.89v-1.95c6,6,9.71,14.29,9.71,23.45Z"/>
    <path class="st14" d="M389.12,177.78c0,4.52-.92,8.83-2.57,12.74v-1.01h-60.32v1.01c-1.66-3.92-2.57-8.22-2.57-12.74,0-9.04,3.66-17.22,9.59-23.15v1.65h46.29v-1.65c5.92,5.92,9.59,14.11,9.59,23.15Z"/>
    <path class="st29" d="M388.7,177.78c0,4.46-.9,8.71-2.54,12.58v-.84h-59.54v.84c-1.63-3.87-2.54-8.12-2.54-12.58,0-8.92,3.62-17,9.46-22.85v1.35h45.69v-1.35c5.85,5.85,9.46,13.92,9.46,22.85Z"/>
    <path class="st18" d="M388.27,177.78c0,4.4-.89,8.6-2.51,12.41v-.68h-58.76v.68c-1.61-3.81-2.51-8.01-2.51-12.41,0-8.81,3.57-16.78,9.34-22.55v1.05h45.09v-1.05c5.77,5.77,9.34,13.74,9.34,22.55Z"/>
    <path class="st6" d="M387.85,177.78c0,4.34-.88,8.48-2.47,12.25v-.51h-57.98v.51c-1.59-3.76-2.47-7.9-2.47-12.25,0-8.69,3.52-16.55,9.22-22.25v.75h44.49v-.75c5.69,5.69,9.22,13.56,9.22,22.25Z"/>
    <path class="st39" d="M387.43,177.78c0,4.29-.87,8.37-2.44,12.08v-.35h-57.2v.35c-1.57-3.71-2.44-7.8-2.44-12.08,0-8.57,3.47-16.33,9.09-21.95v.45h43.89v-.45c5.62,5.62,9.09,13.38,9.09,21.95Z"/>
    <path class="st32" d="M387,177.78c0,4.23-.86,8.25-2.41,11.92v-.18h-56.42v.18c-1.55-3.66-2.41-7.69-2.41-11.92,0-8.45,3.43-16.11,8.97-21.65v.15h43.29v-.15c5.54,5.54,8.97,13.19,8.97,21.65Z"/>
    <path class="st32" d="M386.58,177.78c0,4.17-.84,8.14-2.37,11.75v-.02h-55.63v.02c-1.53-3.61-2.37-7.58-2.37-11.75,0-8.34,3.38-15.88,8.84-21.35,2.73-2.73,5.98-4.94,9.6-6.47v6.32h23.5v-6.32c3.61,1.53,6.86,3.74,9.6,6.47,5.46,5.46,8.84,13.01,8.84,21.35Z"/>
    <path class="st37" d="M386.15,177.78c0,4.11-.83,8.03-2.34,11.59-.75,1.78-1.67,3.47-2.74,5.06v-4.91h-49.36v4.91c-1.07-1.58-1.99-3.28-2.74-5.06-1.51-3.56-2.34-7.48-2.34-11.59,0-8.22,3.33-15.66,8.72-21.05,2.69-2.69,5.9-4.87,9.46-6.38v5.93h23.17v-5.93c3.56,1.51,6.77,3.69,9.46,6.38,5.39,5.39,8.72,12.83,8.72,21.05Z"/>
    <path class="st41" d="M385.73,177.78c0,4.05-.82,7.91-2.31,11.42-.74,1.76-1.65,3.42-2.71,4.98v-4.67h-48.66v4.67c-1.05-1.56-1.96-3.23-2.71-4.98-1.48-3.51-2.31-7.37-2.31-11.42,0-8.1,3.28-15.44,8.59-20.75,2.65-2.65,5.82-4.8,9.33-6.29v5.54h22.84v-5.54c3.51,1.48,6.67,3.63,9.33,6.29,5.31,5.31,8.59,12.65,8.59,20.75Z"/>
    <path class="st58" d="M385.3,177.78c0,3.99-.81,7.8-2.27,11.26-.73,1.73-1.63,3.37-2.67,4.91v-4.43h-47.96v4.43c-1.04-1.54-1.93-3.18-2.67-4.91-1.46-3.46-2.27-7.26-2.27-11.26,0-7.99,3.24-15.21,8.47-20.45,2.62-2.62,5.73-4.73,9.19-6.2v5.15h22.51v-5.15c3.46,1.46,6.58,3.58,9.19,6.2,5.23,5.23,8.47,12.46,8.47,20.45Z"/>
    <path class="st53" d="M384.88,177.78c0,3.93-.8,7.68-2.24,11.09-.72,1.7-1.6,3.32-2.63,4.84v-4.2h-47.25v4.2c-1.02-1.52-1.91-3.14-2.63-4.84-1.44-3.41-2.24-7.16-2.24-11.09,0-15.74,12.76-28.49,28.49-28.49s28.49,12.76,28.49,28.49Z"/>
    <path class="st31" d="M384.46,177.78c0,3.88-.79,7.57-2.21,10.93-.71,1.68-1.58,3.27-2.59,4.77v-3.96h-46.55v3.96c-1.01-1.49-1.88-3.09-2.59-4.77-1.42-3.36-2.21-7.05-2.21-10.93,0-15.5,12.57-28.07,28.07-28.07s28.07,12.57,28.07,28.07Z"/>
    <path class="st26" d="M384.03,177.78c0,3.82-.77,7.45-2.17,10.76-.7,1.65-1.56,3.23-2.55,4.7v-3.72h-45.85v3.72c-.99-1.47-1.85-3.04-2.55-4.7-1.4-3.31-2.17-6.94-2.17-10.76,0-15.27,12.38-27.65,27.65-27.65s27.65,12.38,27.65,27.65Z"/>
    <path class="st28" d="M383.61,177.78c0,3.76-.76,7.34-2.14,10.6-.69,1.63-1.53,3.18-2.51,4.62v-3.49h-45.14v3.49c-.98-1.45-1.82-3-2.51-4.62-1.38-3.26-2.14-6.84-2.14-10.6,0-15.03,12.19-27.22,27.22-27.22s27.22,12.19,27.22,27.22Z"/>
    <path class="st23" d="M383.18,177.78c0,3.7-.75,7.22-2.11,10.43-.68,1.6-1.51,3.13-2.47,4.55v-3.25h-44.44v3.25c-.96-1.43-1.79-2.95-2.47-4.55-1.36-3.21-2.11-6.73-2.11-10.43,0-14.8,12-26.8,26.8-26.8s26.8,12,26.8,26.8Z"/>
    <path class="st1" d="M382.76,177.78c0,7.28-2.95,13.88-7.72,18.65v-6.91h-37.3v6.91c-4.77-4.77-7.72-11.37-7.72-18.65,0-14.57,11.81-26.37,26.37-26.37s26.37,11.81,26.37,26.37Z"/>
    <path class="st9" d="M382.34,177.78c0,7.17-2.9,13.65-7.6,18.35v-6.61h-36.7v6.61c-4.7-4.7-7.6-11.18-7.6-18.35,0-14.33,11.62-25.95,25.95-25.95s25.95,11.62,25.95,25.95Z"/>
    <path class="st44" d="M381.91,177.78c0,7.05-2.86,13.43-7.48,18.05v-6.31h-36.1v6.31c-4.62-4.62-7.48-11-7.48-18.05,0-14.1,11.43-25.52,25.52-25.52s25.52,11.43,25.52,25.52Z"/>
    <path class="st43" d="M381.49,177.78c0,6.93-2.81,13.21-7.35,17.75v-6.01h-35.5v6.01c-4.54-4.54-7.35-10.82-7.35-17.75,0-13.86,11.24-25.1,25.1-25.1s25.1,11.24,25.1,25.1Z"/>
    <path class="st50" d="M381.06,177.78c0,6.81-2.76,12.98-7.23,17.45v-5.71h-34.9v5.71c-4.47-4.47-7.23-10.63-7.23-17.45,0-13.63,11.05-24.68,24.68-24.68s24.68,11.05,24.68,24.68Z"/>
    <path class="st35" d="M380.64,177.78c0,6.7-2.71,12.76-7.1,17.15v-5.42h-34.3v5.42c-4.39-4.39-7.1-10.45-7.1-17.15,0-13.39,10.86-24.25,24.25-24.25s24.25,10.86,24.25,24.25Z"/>
    <path class="st24" d="M380.22,177.78c0,6.58-2.67,12.54-6.98,16.85v-5.12h-33.7v5.12c-4.31-4.31-6.98-10.27-6.98-16.85,0-13.16,10.67-23.83,23.83-23.83s23.83,10.67,23.83,23.83Z"/>
    <path class="st51" d="M379.79,177.78c0,6.46-2.62,12.31-6.85,16.55v-4.82h-33.1v4.82c-4.24-4.24-6.85-10.09-6.85-16.55,0-12.93,10.48-23.4,23.4-23.4s23.4,10.48,23.4,23.4Z"/>
    <path class="st30" d="M379.37,177.78c0,6.35-2.57,12.09-6.73,16.25v-4.52h-32.5v4.52c-4.16-4.16-6.73-9.9-6.73-16.25,0-12.69,10.29-22.98,22.98-22.98s22.98,10.29,22.98,22.98Z"/>
    <path class="st63" d="M378.94,177.78c0,6.23-2.52,11.87-6.61,15.95v-4.22h-31.9v4.22c-4.08-4.08-6.61-9.72-6.61-15.95,0-12.46,10.1-22.56,22.56-22.56s22.56,10.1,22.56,22.56Z"/>
    <path class="st49" d="M378.52,177.78c0,6.11-2.48,11.64-6.48,15.65v-3.92h-31.3v3.92c-4.01-4.01-6.48-9.54-6.48-15.65,0-12.22,9.91-22.13,22.13-22.13s22.13,9.91,22.13,22.13Z"/>
    <path class="st10" d="M378.09,177.78c0,5.99-2.43,11.42-6.36,15.35v-3.62h-30.7v3.62c-3.93-3.93-6.36-9.36-6.36-15.35,0-11.99,9.72-21.71,21.71-21.71s21.71,9.72,21.71,21.71Z"/>
    <path class="st33" d="M377.67,177.78c0,5.88-2.38,11.2-6.23,15.05v-3.32h-30.1v3.32c-3.85-3.85-6.23-9.17-6.23-15.05,0-11.75,9.53-21.28,21.28-21.28s21.28,9.53,21.28,21.28Z"/>
    <path class="st2" d="M377.25,177.78c0,5.76-2.33,10.97-6.11,14.75v-3.02h-29.5v3.02c-3.77-3.77-6.11-8.99-6.11-14.75,0-11.52,9.34-20.86,20.86-20.86s20.86,9.34,20.86,20.86Z"/>
    <path class="st36" d="M376.82,177.78c0,5.64-2.29,10.75-5.99,14.45v-2.72h-28.9v2.72c-3.7-3.7-5.99-8.81-5.99-14.45,0-11.29,9.15-20.44,20.44-20.44s20.44,9.15,20.44,20.44Z"/>
    <path class="st16" d="M376.4,177.78c0,5.53-2.24,10.53-5.86,14.15v-2.42h-28.3v2.42c-3.62-3.62-5.86-8.62-5.86-14.15,0-11.05,8.96-20.01,20.01-20.01s20.01,8.96,20.01,20.01Z"/>
    <path class="st4" d="M375.97,177.78c0,5.41-2.19,10.31-5.74,13.85v-2.12h-27.7v2.12c-3.54-3.54-5.74-8.44-5.74-13.85,0-10.82,8.77-19.59,19.59-19.59s19.59,8.77,19.59,19.59Z"/>
    <path class="st7" d="M375.55,177.78c0,5.29-2.14,10.08-5.61,13.55v-1.82h-27.1v1.82c-3.47-3.47-5.61-8.26-5.61-13.55,0-10.58,8.58-19.16,19.16-19.16s19.16,8.58,19.16,19.16Z"/>
    <path class="st5" d="M375.13,177.78c0,5.17-2.1,9.86-5.49,13.25v-1.52h-26.5v1.52c-3.39-3.39-5.49-8.08-5.49-13.25,0-10.35,8.39-18.74,18.74-18.74s18.74,8.39,18.74,18.74Z"/>
    <circle class="st55" cx="356.39" cy="177.78" r="18.31"/>
    <circle class="st21" cx="356.39" cy="177.78" r="17.89"/>
    <circle class="st62" cx="356.39" cy="177.78" r="17.47"/>
    <circle class="st17" cx="356.39" cy="177.78" r="17.04"/>
    <circle class="st47" cx="356.39" cy="177.78" r="16.62"/>
    <circle class="st22" cx="356.39" cy="177.78" r="16.19"/>
    <circle class="st40" cx="356.39" cy="177.78" r="15.77"/>
    <circle class="st12" cx="356.39" cy="177.78" r="15.35"/>
    <circle class="st19" cx="356.39" cy="177.78" r="14.92"/>
    <circle class="st56" cx="356.39" cy="177.78" r="14.5"/>
    <circle class="st60" cx="356.39" cy="177.78" r="14.07"/>
    <circle class="st48" cx="356.39" cy="177.78" r="13.65"/>
    <circle class="st42" cx="356.39" cy="177.78" r="13.23"/>
    <circle class="st3" cx="356.39" cy="177.78" r="12.8"/>
    <circle class="st38" cx="356.39" cy="177.78" r="12.38"/>
    <circle class="st38" cx="356.39" cy="177.78" r="11.95"/>
    <circle class="st52" cx="356.39" cy="177.78" r="11.53"/>
    <circle class="st61" cx="356.39" cy="177.78" r="11.1"/>
    <circle class="st11" cx="356.39" cy="177.78" r="10.68"/>
    <circle class="st27" cx="356.39" cy="177.78" r="10.26"/>
    <circle class="st8" cx="356.39" cy="177.78" r="9.83"/>
    <circle class="st13" cx="356.39" cy="177.78" r="9.41"/>
    <circle class="st25" cx="356.39" cy="177.78" r="8.98"/>
    <circle class="st45" cx="356.39" cy="177.78" r="8.56"/>
  </g>
</svg>